<?xml version="1.0" encoding="utf-8"?>
<!DOCTYPE svg PUBLIC "-//W3C//DTD SVG 1.1//EN" "http://www.w3.org/Graphics/SVG/1.1/DTD/svg11.dtd">

<svg version="1.1" xmlns="http://www.w3.org/2000/svg" xmlns:xlink="http://www.w3.org/1999/xlink">
<defs>
	<!-- Undo -->
	<g id="icon-undo"><path class="path1" d="M23.808 32c3.554-6.439 4.153-16.26-9.808-15.932v7.932l-12-12 12-12v7.762c16.718-0.436 18.58 14.757 9.808 24.238z" /></g>
	<!-- Redo -->
	<g id="icon-redo"><path class="path1" d="M18 7.762v-7.762l12 12-12 12v-7.932c-13.961-0.328-13.362 9.493-9.808 15.932-8.772-9.482-6.909-24.674 9.808-24.238z" /></g>
	<!-- Forward -->
	<g id="icon-forward"><path class="path1" d="M8.192 0c-3.554 6.439-4.153 16.259 9.808 15.932v-7.932l12 12-12 12v-7.762c-16.718 0.436-18.58-14.757-9.808-24.238z" /></g>
	<!-- Reply -->
	<g id="icon-reply"><path class="path1" d="M14 24.238v7.762l-12-12 12-12v7.932c13.961 0.327 13.362-9.493 9.808-15.932 8.772 9.482 6.909 24.674-9.808 24.238z" /></g>


	<!-- Icons -->
	<!-- Card -->
		<path id="icon-card" class="fill" fill-rule="evenodd" d="M61.766851,43.2970708 C61.766851,45.8612891 63.8529091,47.9490309 66.4188111,47.9490309 C67.2438058,47.9490309 68.0098724,47.7150018 68.6833375,47.334494 C67.9155873,46.1744504 67.462682,44.788796 67.462682,43.2970708 C67.462682,41.8053456 67.9155873,40.4196912 68.6833375,39.2596476 C68.0098724,38.8791398 67.2438058,38.6451107 66.4188111,38.6451107 C63.8529091,38.6451107 61.766851,40.7328525 61.766851,43.2970708 L61.766851,43.2970708 Z M70.1548587,43.2970708 C70.1548587,44.0058928 70.328276,44.6709396 70.612815,45.2736909 C70.897354,44.6709396 71.0690876,44.0058928 71.0690876,43.2970708 C71.0690876,42.5882488 70.897354,41.923202 70.612815,41.3204508 C70.328276,41.923202 70.1548587,42.5882488 70.1548587,43.2970708 L70.1548587,43.2970708 Z M73.7629479,43.2970708 C73.7629479,44.788796 73.3100427,46.1744504 72.5422925,47.334494 C73.2157576,47.7150018 73.9801404,47.9490309 74.8068188,47.9490309 C77.3727208,47.9490309 79.458779,45.8612891 79.458779,43.2970708 C79.458779,40.7328525 77.3727208,38.6451107 74.8068188,38.6451107 C73.9801404,38.6451107 73.2157576,38.8791398 72.5422925,39.2596476 C73.3100427,40.4196912 73.7629479,41.8053456 73.7629479,43.2970708 L73.7629479,43.2970708 Z M59.0729906,43.2970708 C59.0729906,39.2478619 62.3679186,35.952934 66.4188111,35.952934 C67.9795665,35.952934 69.4207818,36.4496145 70.612815,37.2830275 C71.8031645,36.4496145 73.2460635,35.952934 74.8068188,35.952934 C78.8560277,35.952934 82.1509557,39.2478619 82.1509557,43.2970708 C82.1509557,47.3462797 78.8560277,50.6412076 74.8068188,50.6412076 C73.2460635,50.6412076 71.8031645,50.1445271 70.612815,49.3111141 C69.4207818,50.1445271 67.9795665,50.6412076 66.4188111,50.6412076 C62.3679186,50.6412076 59.0729906,47.3462797 59.0729906,43.2970708 L59.0729906,43.2970708 Z M10.423556,27.0413071 C10.423556,28.4959917 11.6088545,29.6812903 13.0635391,29.6812903 L18.5590143,29.6812903 C20.0136989,29.6812903 21.1989975,28.4959917 21.1989975,27.0413071 L21.1989975,21.5441483 C21.1989975,20.0894637 20.0136989,18.9058488 18.5590143,18.9058488 L13.0635391,18.9058488 C11.6088545,18.9058488 10.423556,20.0894637 10.423556,21.5441483 L10.423556,27.0413071 Z M7.7296956,27.0413071 L7.7296956,21.5441483 C7.7296956,18.6044732 10.1221803,16.2119884 13.0635391,16.2119884 L18.5590143,16.2119884 C21.5003731,16.2119884 23.8928578,18.6044732 23.8928578,21.5441483 L23.8928578,27.0413071 C23.8928578,29.9826659 21.5003731,32.3751507 18.5590143,32.3751507 L13.0635391,32.3751507 C10.1221803,32.3751507 7.7296956,29.9826659 7.7296956,27.0413071 L7.7296956,27.0413071 Z M2.69386037,53.8772074 L85.3061396,53.8772074 L85.3061396,2.69386037 L2.69386037,2.69386037 L2.69386037,53.8772074 Z M7.10542736e-14,56.5710678 L88,56.5710678 L88,-8.52651283e-14 L7.10542736e-14,-8.52651283e-14 L7.10542736e-14,56.5710678 Z M8.09505041,40.7867297 L49.0636157,40.7867297 L49.0636157,38.0928693 L8.09505041,38.0928693 L8.09505041,40.7867297 Z"/>

	<!-- Card Approval -->
	<!-- <g id="icon-card-approval" fill-rule="evenodd"> -->

		<path id="icon-card-approval" fill-rule="evenodd" d="M67.8404028,75.0842141 C58.2757587,75.0842141 50.492178,67.3023916 50.492178,57.7377475 C50.492178,56.3716209 50.6679986,55.0476914 50.968652,53.7712333 C51.1954606,52.8024615 51.4908393,51.8583045 51.8741284,50.9581027 C54.5202294,44.7516333 60.6792272,40.3895227 67.8404028,40.3895227 C69.9045374,40.3895227 71.8772452,40.7692953 73.7145711,41.4338974 C74.6974086,41.7890552 75.636291,42.2250904 76.5277017,42.7437614 C81.6968292,45.7520529 85.1886276,51.3378754 85.1886276,57.7377475 C85.1886276,67.3023916 77.4068051,75.0842141 67.8404028,75.0842141 L67.8404028,75.0842141 Z M76.5277017,39.5719566 C75.6222253,39.1359214 74.6886176,38.7526323 73.7145711,38.4537372 C71.8561467,37.8875947 69.8851971,37.5763921 67.8404028,37.5763921 C59.103874,37.5763921 51.6701764,43.1710056 48.8781443,50.9581027 C48.5511179,51.870612 48.2698048,52.8042197 48.0764021,53.7712333 C47.8197039,55.0547242 47.6808056,56.380412 47.6808056,57.7377475 C47.6808056,68.8531298 56.7232623,77.8973447 67.8404028,77.8973447 C78.9575433,77.8973447 88,68.8531298 88,57.7377475 C88,49.7326327 83.3003137,42.8246389 76.5277017,39.5719566 L76.5277017,39.5719566 Z M76.0683075,51.198977 L78.0568392,53.1875087 L65.9744432,65.2699047 L59.6712423,59.6809304 L61.3274729,58.0264579 L61.659774,57.6923987 L61.992075,58.0264579 L65.9744432,61.2893249 L73.4960512,53.7712333 L75.7817198,51.4855647 L76.0683075,51.198977 Z M32.9241773,35.0182014 L46.9898304,35.0182014 L46.9898304,32.2050708 L32.9241773,32.2050708 L32.9241773,35.0182014 Z M21.4677029,32.0644143 L21.4677029,35.2836906 C21.4677029,37.1720046 19.9292721,38.7086771 18.0427164,38.7086771 L14.8216819,38.7086771 C12.9351262,38.7086771 11.3984536,37.1720046 11.3984536,35.2836906 L11.3984536,32.0644143 C11.3984536,30.1778586 12.9351262,28.641186 14.8216819,28.641186 L18.0427164,28.641186 C19.9292721,28.641186 21.4677029,30.1778586 21.4677029,32.0644143 L21.4677029,32.0644143 Z M14.8216819,25.8280554 C11.3826297,25.8280554 8.58532297,28.6253621 8.58532297,32.0644143 L8.58532297,35.2836906 C8.58532297,38.7227428 11.3826297,41.5218078 14.8216819,41.5218078 L18.0427164,41.5218078 C21.4817686,41.5218078 24.2790753,38.7227428 24.2790753,35.2836906 L24.2790753,32.0644143 C24.2790753,28.6253621 21.4817686,25.8280554 18.0427164,25.8280554 L14.8216819,25.8280554 Z M2.8113724,2.8113724 L31.4595912,2.8113724 L40.3789734,2.8113724 L73.7145711,2.8113724 L73.7145711,8.58708118 L2.8113724,8.58708118 L2.8113724,2.8113724 Z M2.8113724,17.1741624 L73.7145711,17.1741624 L73.7145711,11.3984536 L2.8113724,11.3984536 L2.8113724,17.1741624 Z M31.4595912,50.9581027 L2.8113724,50.9581027 L2.8113724,19.987293 L73.7145711,19.987293 L73.7145711,35.5526962 C74.6763102,35.8076362 75.6187089,36.1082895 76.5277017,36.4792711 L76.5277017,0 L40.3789734,0 L31.4595912,0 L0,0 L0,53.7712333 L31.4595912,53.7712333 L40.3789734,53.7712333 L45.233382,53.7712333 C45.4004116,52.8147689 45.6061218,51.870612 45.889193,50.9581027 L40.3789734,50.9581027 L31.4595912,50.9581027 Z"/>
	<!-- </g> -->
	<!-- ATM Access -->
	<g id="icon-atm-access" fill-rule="evenodd">

		<path d="M78.1883699,54.0854394 L74.5831855,50.4415517 L74.5831855,42.3483023 L74.5831855,37.2924282 L74.5831855,32.6585456 L73.3147828,32.6585456 L72.0447927,32.6585456 L72.0447927,37.2924282 L72.0447927,42.3483023 L72.0447927,47.8759082 L72.0447927,51.5053551 L72.0447927,57.3041266 L67.1315185,57.3041266 L67.1188186,57.6346598 L67.1156436,57.6346598 L67.0886563,58.3887889 C67.0854813,58.449761 67.0965938,58.5219649 67.0981812,58.5877506 C67.1061187,58.9712333 67.1759681,59.4076654 67.2950297,59.8697701 L74.5831855,59.8697701 L74.5831855,54.0709986 L76.3929214,55.9001628 C78.0169212,57.541597 79.3885105,60.8886466 79.3885105,63.2104016 L79.3885105,86.4423917 L81.9269033,86.4423917 L81.9269033,63.2104016 C81.9269033,60.211535 80.2854411,56.203419 78.1883699,54.0854394 L78.1883699,54.0854394 Z"/>
		<polygon points="47.037 42.348 47.037 37.293 47.037 37.293 47.037 32.66 45.767 32.66 44.497 32.66 44.497 37.293 44.497 42.348 44.497 59.871 50.474 59.871 50.572 58.587 50.671 57.303 47.037 57.303"/>
		<path d="M59.0099317,36.7239433 C59.941787,36.7239433 60.8228426,36.9325322 61.6245239,37.2935514 C61.9420214,37.4363546 62.2452315,37.6016212 62.5341543,37.7925602 C61.5181622,38.4632538 60.3100841,38.8611772 59.0099317,38.8611772 C57.7097794,38.8611772 56.5017013,38.4632538 55.4872967,37.7925602 C55.7746319,37.6016212 56.0778421,37.4363546 56.3953396,37.2935514 C57.1970209,36.9325322 58.0780765,36.7239433 59.0099317,36.7239433 M52.5440946,43.259194 C52.5440946,41.9129933 52.9504914,40.6598554 53.6442235,39.6185154 C55.1443993,40.7497091 56.9985849,41.4284253 59.0099317,41.4284253 C61.0228661,41.4284253 62.8754641,40.7497091 64.3772274,39.6185154 C65.0709595,40.6598554 65.4773564,41.9129933 65.4773564,43.259194 C65.4773564,44.4224783 65.1503339,45.5007224 64.620113,46.4489997 C65.2916203,47.0667437 65.847241,47.7952004 66.2838001,48.6070925 C67.3696416,47.1036479 68.0173366,45.2584384 68.0173366,43.259194 C68.0173366,41.2070001 67.3331294,39.3168638 66.1949008,37.7925602 C66.3171373,37.6288982 66.4361989,37.4652361 66.547323,37.2935514 C67.4172663,35.9505598 67.9379622,34.3652841 67.9998742,32.6596687 L65.4440191,32.6596687 C65.3821071,33.877507 65.0122225,35.0135143 64.3772274,35.9666051 C62.8754641,34.8354114 61.0228661,34.1566952 59.0099317,34.1566952 C56.9985849,34.1566952 55.1443993,34.8354114 53.6442235,35.9666051 C53.0092285,35.0135143 52.6393438,33.877507 52.5774318,32.6596687 L50.0215767,32.6596687 C50.0834887,34.3652841 50.6041847,35.9505598 51.4741279,37.2935514 C51.5852521,37.4652361 51.7043136,37.6288982 51.8265502,37.7925602 C50.6883215,39.3168638 50.0041144,41.2070001 50.0041144,43.259194 C50.0041144,45.37236 50.7264212,47.3138414 51.9249744,48.8606083 C52.3329587,48.0342753 52.8520672,47.2721236 53.4997621,46.6335206 C52.9060418,45.6451301 52.5440946,44.4978912 52.5440946,43.259194"/>
		<path d="M68.5042191,66.4359883 L67.3104283,65.2293817 C66.0880629,63.992289 65.0609584,61.8037101 64.6958362,59.8702514 C64.6116994,59.4225876 64.5672497,58.9925735 64.5608998,58.5866274 C64.5593123,58.4919602 64.5466124,58.3876657 64.5513748,58.2962075 L64.5767746,57.5420784 L64.5862996,57.3046079 L64.6101119,56.6291008 L64.7132986,53.7377377 L64.7593357,52.5006451 C64.7593357,51.8106972 64.6196368,51.1544444 64.3926261,50.5415139 C64.086241,49.7135764 63.6004697,48.9803062 62.9718246,48.3866301 C61.9748824,47.4463755 60.6461552,46.857513 59.1761417,46.857513 C57.6251663,46.857513 56.2234147,47.5009296 55.2105976,48.5230152 C54.5994148,49.1391547 54.1549183,49.9013065 53.8850454,50.7356621 C53.7120092,51.2667615 53.5945352,51.8203244 53.5945352,52.4011642 L53.2183006,57.3046079 L53.1182889,58.5866274 L53.0198646,59.8702514 L52.1022968,71.8047457 C51.8863985,74.603046 52.4817063,79.0283398 53.4294364,81.6661872 L55.6169944,87.7634012 L58.1949349,86.86492 L55.8170178,80.7917183 C54.9867618,78.4795906 54.4454285,74.4554293 54.6343396,72.0053119 L55.5661948,59.8702514 L55.664619,58.5866274 L55.7630433,57.3046079 L56.1313404,52.5006451 C56.1313404,52.2952652 56.1535652,52.094699 56.1916649,51.9005509 C56.3869259,50.9073468 57.0568457,50.0890365 57.9506012,49.687904 C58.3268358,49.5210328 58.7395826,49.4231565 59.1761417,49.4231565 C59.5857135,49.4231565 59.9762355,49.5081966 60.3334202,49.6574179 C61.2351132,50.0312734 61.9161454,50.8271203 62.1383936,51.7850247 C62.1876057,52.0016362 62.220943,52.2246659 62.220943,52.4541137 L62.1780808,53.6462795 L63.4433085,53.6928109 L62.1780808,53.6462795 L62.0431444,57.3046079 L62.0383819,57.4490156 L62.0113946,58.2015402 C62.0066321,58.325089 62.022507,58.4598696 62.0240945,58.5866274 C62.028857,59.0005962 62.0653692,59.4290057 62.1304562,59.8702514 C62.2050681,60.3788875 62.3114298,60.8971507 62.4558911,61.4202274 C63.0448491,63.5382071 64.1608529,65.6770456 65.5149798,67.0457097 L68.8074292,70.3735049 L69.7075347,69.4669455 L70.6060527,68.5587815 L68.5042191,66.4359883 Z"/>
		<polygon points="42.299 30.092 76.979 30.092 76.979 27.525 42.299 27.525"/>
		<path d="M2.53998022 19.4264679L79.1299088 19.4264679 79.1299088 2.57408913 2.53998022 2.57408913 2.53998022 19.4264679zM0 21.9937159L81.6683015 21.9937159 81.6683015.0084456315 0 .0084456315 0 21.9937159zM2.53998022 33.9105603L5.86259185 33.9105603 5.86259185 30.552279 2.53998022 30.552279 2.53998022 33.9105603zM0 36.4762038L8.40098458 36.4762038 8.40098458 27.985031 0 27.985031 0 36.4762038zM15.5653163 33.9105603L18.8879279 33.9105603 18.8879279 30.552279 15.5653163 30.552279 15.5653163 33.9105603zM13.0253361 36.4762038L21.4263207 36.4762038 21.4263207 27.985031 13.0253361 27.985031 13.0253361 36.4762038zM28.5906524 33.9105603L31.913264 33.9105603 31.913264 30.552279 28.5906524 30.552279 28.5906524 33.9105603zM26.0506721 36.4762038L34.4516567 36.4762038 34.4516567 27.985031 26.0506721 27.985031 26.0506721 36.4762038zM2.53998022 48.0625151L5.86259185 48.0625151 5.86259185 44.7042337 2.53998022 44.7042337 2.53998022 48.0625151zM0 50.6281586L8.40098458 50.6281586 8.40098458 42.1369857 0 42.1369857 0 50.6281586zM15.5653163 48.0625151L18.8879279 48.0625151 18.8879279 44.7042337 15.5653163 44.7042337 15.5653163 48.0625151zM13.0253361 50.6281586L21.4263207 50.6281586 21.4263207 42.1369857 13.0253361 42.1369857 13.0253361 50.6281586zM28.5906524 48.0625151L31.913264 48.0625151 31.913264 44.7042337 28.5906524 44.7042337 28.5906524 48.0625151zM26.0506721 50.6281586L34.4516567 50.6281586 34.4516567 42.1369857 26.0506721 42.1369857 26.0506721 50.6281586zM2.53998022 61.5566125L5.86259185 61.5566125 5.86259185 58.1983312 2.53998022 58.1983312 2.53998022 61.5566125zM0 64.1238605L8.40098458 64.1238605 8.40098458 55.6326877 0 55.6326877 0 64.1238605zM15.5653163 61.5566125L18.8879279 61.5566125 18.8879279 58.1983312 15.5653163 58.1983312 15.5653163 61.5566125zM13.0253361 64.1238605L21.4263207 64.1238605 21.4263207 55.6326877 13.0253361 55.6326877 13.0253361 64.1238605zM28.5906524 61.5566125L31.913264 61.5566125 31.913264 58.1983312 28.5906524 58.1983312 28.5906524 61.5566125zM26.0506721 64.1238605L34.4516567 64.1238605 34.4516567 55.6326877 26.0506721 55.6326877 26.0506721 64.1238605z"/>
	</g>
	<!-- Person -->
	<g id="icon-person" fill-rule="evenodd">

		<path fill-rule="evenodd" d="M34.2953553,17.2642111 C34.2953553,19.4848202 36.1016234,21.2932464 38.3222326,21.2932464 C40.5449998,21.2932464 42.3512678,19.4848202 42.3512678,17.2642111 C42.3512678,15.0436019 40.5449998,13.2351758 38.3222326,13.2351758 C36.1016234,13.2351758 34.2953553,15.0436019 34.2953553,17.2642111 L34.2953553,17.2642111 Z M30.8425131,17.2642111 C30.8425131,13.1380646 34.1982442,9.78449164 38.3222326,9.78449164 C42.448379,9.78449164 45.8041101,13.1380646 45.8041101,17.2642111 C45.8041101,21.3903575 42.448379,24.7460886 38.3222326,24.7460886 C34.1982442,24.7460886 30.8425131,21.3903575 30.8425131,17.2642111 L30.8425131,17.2642111 Z M26.2394428,17.2642111 C26.2394428,23.9281966 31.6582471,29.3513169 38.3222326,29.3513169 C44.9862181,29.3513169 50.4093384,23.9281966 50.4093384,17.2642111 C50.4093384,10.6002256 44.9862181,5.17926333 38.3222326,5.17926333 C31.6582471,5.17926333 26.2394428,10.6002256 26.2394428,17.2642111 L26.2394428,17.2642111 Z M22.8880279,18.9906322 L21.0580215,18.9906322 L21.0580215,15.53779 L22.8880279,15.53779 C23.064986,13.9559566 23.4793271,12.4474962 24.0943646,11.044779 L22.5082152,10.1276178 L24.2367943,7.13659326 L25.8358919,8.06022855 C26.7616852,6.80641522 27.8665947,5.70150571 29.1204081,4.77571239 L28.1967728,3.17661484 L31.1856393,1.44803571 L32.1028005,3.03634313 C33.5055177,2.41914758 35.0139781,2.00480651 36.5958115,1.82784835 L36.5958115,0 L40.0486537,0 L40.0486537,1.82784835 C41.630487,2.00480651 43.1389475,2.41914758 44.5438226,3.03634313 L45.4588258,1.45019373 L48.4520084,3.17661484 L47.5262151,4.77571239 C48.7800284,5.70150571 49.887096,6.80641522 50.8128893,8.06022855 L52.4119869,7.13659326 L54.138408,10.1276178 L52.5522586,11.044779 C53.1672961,12.4474962 53.5837952,13.9559566 53.7585953,15.53779 L55.5864437,15.53779 L55.5864437,18.9906322 L53.7585953,18.9906322 C53.5837952,20.5724655 53.1672961,22.080926 52.5522586,23.4858012 L54.1362499,24.4008044 L52.4119869,27.3918289 L50.8128893,26.4681936 C49.887096,27.722007 48.7800284,28.8290745 47.5262151,29.7548678 L48.4498504,31.3518073 L45.4609839,33.0782285 L44.5459807,31.4920791 C43.1411055,32.1092746 41.630487,32.5257737 40.0486537,32.7005738 L40.0486537,34.5284222 L36.5958115,34.5284222 L36.5958115,32.7005738 C35.0139781,32.5257737 33.5055177,32.1092746 32.1028005,31.4920791 L31.1856393,33.0803865 L28.1967728,31.3518073 L29.1204081,29.7548678 C27.8665947,28.8290745 26.7595272,27.722007 25.8337339,26.4681936 L24.2367943,27.3918289 L22.5082152,24.4008044 L24.0943646,23.4858012 C23.4793271,22.080926 23.064986,20.5724655 22.8880279,18.9906322 L22.8880279,18.9906322 Z M76.6142528,70.6559419 L73.6555986,72.4319976 L54.8894011,41.1557212 C54.8462406,41.0888224 54.8073961,41.0219236 54.7663936,40.9593408 C54.7663936,41.0327137 54.7642356,41.1104027 54.7642356,41.1902496 L54.7642356,51.9501692 L54.7642356,56.8122027 L54.7642356,88 L21.8500172,88 L21.8500172,56.8122027 L21.8500172,51.9501692 L21.8500172,41.1902496 C21.8500172,41.1082446 21.8478591,41.0305557 21.8478591,40.9571828 C21.8090147,41.0197656 21.7658541,41.0866644 21.7248516,41.1557212 L2.95865418,72.4319976 L-1.20792265e-13,70.6559419 L18.7661975,39.3796655 C20.1279121,37.1115798 21.5737898,36.1706803 23.06067,36.5850213 C24.5475501,36.9972044 25.3028594,38.5466673 25.3028594,41.1902496 L25.3028594,51.9501692 L25.3028594,56.8122027 L25.3028594,84.5493158 L51.3135514,84.5493158 L51.3135514,56.8122027 L51.3135514,51.9501692 L51.3135514,41.1902496 C51.3135514,38.5466673 52.0667026,36.9972044 53.5578989,36.5850213 C55.042621,36.1620482 56.4906567,37.1158958 57.8502134,39.3796655 L76.6142528,70.6559419 Z"/>
	</g>
	<!-- Secure -->
	<g id="icon-secure" fill-rule="evenodd">

		<path fill-rule="evenodd" d="M2.94597648,2.94597648 L32.9470645,2.94597648 L42.2876512,2.94597648 L77.1974725,2.94597648 L77.1974725,8.99259321 L2.94597648,8.99259321 L2.94597648,2.94597648 Z M2.94597648,17.9851864 L77.1974725,17.9851864 L77.1974725,11.9367285 L2.94597648,11.9367285 L2.94597648,17.9851864 Z M32.9470645,53.3645227 L42.2876512,53.3645227 L49.7004645,53.3645227 L49.7004645,56.3104992 L42.2876512,56.3104992 L32.9470645,56.3104992 L0,56.3104992 L0,-1.13686838e-13 L32.9470645,-1.13686838e-13 L42.2876512,-1.13686838e-13 L80.1416077,-1.13686838e-13 L80.1416077,29.8482655 C79.2467674,29.0344395 78.2672302,28.3126752 77.1974725,27.7271624 L77.1974725,20.9311629 L2.94597648,20.9311629 L2.94597648,53.3645227 L32.9470645,53.3645227 Z M85.1387203,50.5543565 L88,50.5543565 L88,86.1234311 L52.6482822,86.1234311 L52.6482822,56.4809917 L52.6482822,53.5167477 L52.6482822,50.5543565 L54.6957359,50.5543565 L57.6435536,50.5543565 L60.5876888,50.5543565 L63.5355065,50.5543565 L76.2989497,50.5543565 L77.1974725,50.5543565 L79.2467674,50.5543565 L80.1416077,50.5543565 L82.1927439,50.5543565 L85.1387203,50.5543565 Z M55.5924175,56.4809917 L55.5924175,83.1591871 L85.0540235,83.1591871 L85.0540235,53.5167477 L80.1416077,53.5167477 L77.1974725,53.5167477 L55.5924175,53.5167477 L55.5924175,56.4809917 Z M68.8511529,73.7736498 L68.8511529,62.9041378 L71.7971293,62.9041378 L71.7971293,73.7736498 L68.8511529,73.7736498 Z M79.2467674,47.5882599 L79.2467674,41.1651138 C79.2467674,38.967868 78.4605599,36.968856 77.1974725,35.3681642 C75.4869649,33.1987082 72.8760932,31.7795764 69.9172281,31.7795764 C64.7728167,31.7795764 60.5876888,35.9888028 60.5876888,41.1651138 L60.5876888,47.5882599 L57.6435536,47.5882599 L57.6435536,41.1651138 C57.6435536,34.356616 63.1488471,28.8153325 69.9172281,28.8153325 C72.6440976,28.8153325 75.1573838,29.7268375 77.1974725,31.2460125 C78.3464033,32.1019379 79.3480353,33.1468339 80.1416077,34.3473527 C81.4341549,36.3019011 82.1927439,38.6455064 82.1927439,41.1651138 L82.1927439,47.5882599 L80.1416077,47.5882599 L79.2467674,47.5882599 Z"/>
	</g>

	<!-- Social Media Icons-->
	<!-- Share -->
	<g id="icon-social-share" fill-rule="evenodd">

		<path d="M12.5,20 C12.5,16.9620258 10.0378862,14.5 7.00065623,14.5 C3.96227327,14.5 1.5,16.9618663 1.5,20 C1.5,23.0381337 3.96227327,25.5 7.00065623,25.5 C10.0378862,25.5 12.5,23.0379742 12.5,20 Z M14,20 C14,23.8668667 10.8658479,27 7.00065623,27 C3.13415206,27 0,23.8668667 0,20 C0,16.1331333 3.13415206,13 7.00065623,13 C10.8658479,13 14,16.1331333 14,20 Z M40,7 C40,10.8668667 36.8658479,14 33.0006562,14 C29.1341521,14 26,10.8668667 26,7 C26,3.13313332 29.1341521,0 33.0006562,0 C36.8658479,0 40,3.13313332 40,7 Z M38.5,7 C38.5,3.96202577 36.0378862,1.5 33.0006562,1.5 C29.9622733,1.5 27.5,3.96186633 27.5,7 C27.5,10.0381337 29.9622733,12.5 33.0006562,12.5 C36.0378862,12.5 38.5,10.0379742 38.5,7 Z M40,33 C40,36.8668667 36.8658479,40 33.0006562,40 C29.1341521,40 26,36.8668667 26,33 C26,29.1331333 29.1341521,26 33.0006562,26 C36.8658479,26 40,29.1331333 40,33 Z M38.5,33 C38.5,29.9620258 36.0378862,27.5 33.0006562,27.5 C29.9622733,27.5 27.5,29.9618663 27.5,33 C27.5,36.0381337 29.9622733,38.5 33.0006562,38.5 C36.0378862,38.5 38.5,36.0379742 38.5,33 Z M14.7365176,15.5123581 L24.6533145,10.3500004 L25.3459374,11.6805166 L15.4291405,16.8428743 L14.7365176,15.5123581 Z M14.7365176,24.530517 L15.4291405,23.2000008 L25.3459374,28.3623585 L24.6533145,29.6928747 L14.7365176,24.530517 Z"/>
	</g>
	<!-- Twitter -->
	<g id="icon-social-twitter" fill="none" fill-rule="evenodd">

	    <use stroke-width="4" mask="url(#b)" xlink:href="#a"/>
	    <path id="a" d="M20,0 C31.0458333,0 40,8.95416667 40,20 C40,31.0458333 31.0458333,40 20,40 C8.95416667,40 0,31.0458333 0,20 C0,8.95416667 8.95416667,0 20,0"/>
	    <path class="fill" fill="#000000" d="M27.1566173,16.484777 C27.1642821,16.6366399 27.167348,16.7899701 27.167348,16.941833 C27.167348,21.6143688 23.4529893,27 16.6612161,27 C14.574093,27 12.6341339,26.4145575 11,25.4109417 C11.2889627,25.4439554 11.5825243,25.460829 11.8799182,25.460829 C13.611395,25.460829 15.2033725,24.8951947 16.4665304,23.948069 C14.850792,23.9194571 13.4864589,22.8989677 13.0166071,21.4940523 C13.241952,21.5344023 13.4734287,21.5556778 13.7110373,21.5556778 C14.0490547,21.5556778 14.3755749,21.5138605 14.684466,21.4331604 C12.9951456,21.1074255 11.72279,19.6797673 11.72279,17.9659907 L11.72279,17.9219724 C12.2202351,18.1868155 12.7904957,18.3460148 13.3952478,18.3650893 C12.4041901,17.7297595 11.7519162,16.6498454 11.7519162,15.4217366 C11.7519162,14.7746686 11.9335718,14.1672169 12.2524272,13.6448672 C14.073582,15.7841534 16.7961165,17.1905361 19.8643332,17.3387308 C19.8022483,17.0790232 19.7700562,16.810512 19.7700562,16.5324634 C19.7700562,14.5809883 21.4218191,13 23.4614205,13 C24.5237609,13 25.4841594,13.4277105 26.1578947,14.1151286 C26.9979561,13.9559294 27.7881962,13.6617408 28.5025549,13.2575067 C28.2266224,14.082115 27.6410322,14.7746686 26.8791518,15.21265 C27.6264691,15.1260808 28.3362289,14.9382697 29,14.6558193 C28.5048544,15.3659802 27.8786408,15.987371 27.1566173,16.484777"/>
	</g>

	<path id="icon-social-twitter1" fill-rule="evenodd" d="M22.6192642,4.87868784 C22.6299949,5.09129592 22.6342872,5.30595818 22.6342872,5.51856626 C22.6342872,12.0601163 17.434185,19.6 7.92570261,19.6 C5.0037302,19.6 2.28778743,18.7803804 0,17.3753183 C0.404547777,17.4215375 0.815533981,17.4451606 1.23188554,17.4451606 C3.65595299,17.4451606 5.88472151,16.6532725 7.65314257,15.3272965 C5.39110884,15.28724 3.48104241,13.8585547 2.82324987,11.8916732 C3.13873275,11.9481633 3.4628002,11.977949 3.79545222,11.977949 C4.26867655,11.977949 4.7258048,11.9194047 5.15825243,11.8064246 C2.79320388,11.3503956 1.01190598,9.35167427 1.01190598,6.95238694 L1.01190598,6.89076141 C1.70832908,7.26154169 2.50669392,7.48442069 3.35334696,7.51112509 C1.96586612,6.62166326 1.05268268,5.10978358 1.05268268,3.39043127 C1.05268268,2.48453597 1.30700051,1.63410365 1.75339806,0.902814023 C4.30301482,3.89781481 8.11456311,5.86675051 12.4100664,6.07422313 C12.3231477,5.7106325 12.2780787,5.33471676 12.2780787,4.94544883 C12.2780787,2.21338364 14.5905468,0 17.4459888,0 C18.9332652,0 20.2778232,0.598794739 21.2210526,1.56118011 C22.3971385,1.33830111 23.5034747,0.926437143 24.5035769,0.360509354 C24.1172713,1.51496096 23.2974451,2.48453597 22.2308125,3.09771 C23.2770567,2.97651313 24.2707205,2.71357753 25.2,2.31814704 C24.5067961,3.31237227 23.6300971,4.18231934 22.6192642,4.87868784"/>
	<!-- Facebook -->	
	<g id="icon-social-facebook" fill="none" fill-rule="evenodd">

		<use stroke-width="4" mask="url(#b)" xlink:href="#a"/>
		<path class="fill" fill="#000000" d="M21.427555,15.1658994 C21.427555,14.574119 21.8033816,14.128819 22.1423788,14.128819 L24.9974889,14.128819 L24.9974889,11 L22.1423788,11 C19.7794425,11 18.0576714,13.0164058 18.0576714,15.4982004 L18.0576714,17.2275048 L15,17.2275048 L15,20.168829 L18.0576714,20.168829 L18.0576714,28.9961497 L21.427555,28.9961497 L21.427555,20.168829 L24.4592785,20.168829 L25,17.2275048 L21.427555,17.2275048 L21.427555,15.1658994 Z"/>
		<path id="a" d="M20,0 C31.0458333,0 40,8.95416667 40,20 C40,31.0458333 31.0458333,40 20,40 C8.95416667,40 0,31.0458333 0,20 C0,8.95416667 8.95416667,0 20,0"/>
		<mask id="b" width="40" height="40" x="0" y="0" fill="white">
		  <use xlink:href="#a"/>
		</mask>
	</g>
	<!-- LinkedIn -->
	<g id="icon-social-linkedin" fill="none" fill-rule="evenodd">

		<path id="a" d="M20,0 C31.0458333,0 40,8.95416667 40,20 C40,31.0458333 31.0458333,40 20,40 C8.95416667,40 0,31.0458333 0,20 C0,8.95416667 8.95416667,0 20,0"/>
		<mask id="b" width="40" height="40" x="0" y="0" fill="white">
		 	<use xlink:href="#a"/>
		</mask>  	
		<use stroke-width="4" mask="url(#b)" xlink:href="#a"/>
		<path class="fill" fill="#000000" d="M23.5777778,16.0444444 C21.9444444,16.0444444 21.0111111,16.9777778 20.6222222,17.6 L20.5444444,17.6 L20.3888889,16.2777778 L17.5888889,16.2777778 C17.5888889,17.1333333 17.6666667,18.1444444 17.6666667,19.3111111 L17.6666667,26 L20.7777778,26 L20.7777778,20.4777778 C20.7777778,20.1666667 20.7777778,19.9333333 20.8555556,19.7 C21.0888889,19.1555556 21.4777778,18.4555556 22.3333333,18.4555556 C23.4222222,18.4555556 23.8888889,19.3888889 23.8888889,20.6333333 L23.8888889,26 L27,26 L27,20.2444444 C27,17.3666667 25.5222222,16.0444444 23.5777778,16.0444444 L23.5777778,16.0444444 Z M13,26 L16.1111111,26 L16.1111111,15.8888889 L13,15.8888889 L13,26 Z M16.1111111,13.5555556 C16.1111111,14.4111111 15.5666667,15.1111111 14.5555556,15.1111111 C13.6222222,15.1111111 13,14.4111111 13,13.6333333 C13,12.7777778 13.6222222,12 14.5555556,12 C15.4888889,12 16.1111111,12.7 16.1111111,13.5555556 L16.1111111,13.5555556 Z"/>
	</g>
	<!-- Youtube -->
	<g id="icon-social-youtube" fill="none" fill-rule="evenodd">

		<path id="a" d="M20,0 C31.0458333,0 40,8.95416667 40,20 C40,31.0458333 31.0458333,40 20,40 C8.95416667,40 0,31.0458333 0,20 C0,8.95416667 8.95416667,0 20,0"/>
		<mask id="b" width="40" height="40" x="0" y="0" fill="white">
			<use xlink:href="#a"/>
		</mask>
		<use stroke-width="4" mask="url(#b)" xlink:href="#a"/>
		<path class="fill" fill="#000000" d="M22.8842484,20.2305825 L18.8429863,22.1167559 C18.4897054,22.2809675 18.1996987,22.0971711 18.1996987,21.706227 L18.1996987,18.15308 C18.1996987,17.7636425 18.4897054,17.5790927 18.8429863,17.7433043 L22.8842484,19.6294777 C23.2382826,19.7951958 23.2382826,20.0648644 22.8842484,20.2305825 M20,13 C11.1544191,13 11,13.7864078 11,19.9300301 C11,26.0736525 11.1544191,26.8600603 20,26.8600603 C28.8448276,26.8600603 29,26.0736525 29,19.9300301 C29,13.7864078 28.8448276,13 20,13"/>
	</g>
	<!-- Tumblr -->
	<g id="icon-social-tumblr" fill="none" fill-rule="evenodd">

		<path id="a" d="M20,0 C31.0458333,0 40,8.95416667 40,20 C40,31.0458333 31.0458333,40 20,40 C8.95416667,40 0,31.0458333 0,20 C0,8.95416667 8.95416667,0 20,0"/>
		<mask id="b" width="40" height="40" x="0" y="0" fill="white">
			<use xlink:href="#a"/>
		</mask>
		<use stroke-width="4" mask="url(#b)" xlink:href="#a"/>
		<path class="fill" fill="#000000" d="M25,27.1269565 C24.30625,27.4495652 23.6785714,27.6756522 23.1169643,27.806087 C22.5544643,27.9347826 21.9464286,28 21.2928571,28 C20.5508929,28 19.8946429,27.9069565 19.3241071,27.7234783 C18.7535714,27.5382609 18.2678571,27.2747826 17.8642857,26.933913 C17.4616071,26.5904348 17.1821429,26.2278261 17.0267857,25.8434783 C16.8714286,25.4582609 16.79375,24.8991304 16.79375,24.1686957 L16.79375,18.5556522 L15,18.5556522 L15,16.2913043 C15.6375,16.0878261 16.1839286,15.7956522 16.6383929,15.4130435 C17.09375,15.0321739 17.4580357,14.573913 17.7339286,14.0391304 C18.0089286,13.506087 18.1973214,12.8252174 18.3017857,12 L20.6098214,12 L20.6098214,16.0452174 L24.4616071,16.0452174 L24.4616071,18.5556522 L20.6098214,18.5556522 L20.6098214,22.6591304 C20.6098214,23.586087 20.6598214,24.1826087 20.7598214,24.446087 C20.8589286,24.7095652 21.0446429,24.92 21.3151786,25.0765217 C21.675,25.2886957 22.0857143,25.3956522 22.5482143,25.3956522 C23.3696429,25.3956522 24.1875,25.1321739 25,24.606087 L25,27.1269565 Z"/>		
	</g>
	<!-- Email -->
	<g id="icon-social-email" fill="none" fill-rule="evenodd">

		<path id="a" d="M40,20 C40,31.0458333 31.0458333,40 20,40 C8.95416667,40 0,31.0458333 0,20 C0,8.95416667 8.95416667,0 20,0 C31.0458333,0 40,8.95416667 40,20 Z"/>
		<mask id="b" fill="white">
			<use xlink:href="#a"/>
		</mask>
		<use stroke-width="4" mask="url(#b)" xlink:href="#a"/>
		<path class="fill" fill="#000000" d="M10,13 L30,13 L30,27 L10,27 L10,13 Z M11.5,15.1875 L11.5,24.8139708 L16.9524536,19.3118286 L11.5,15.1875 Z M28.5099998,15.1538462 L23.109375,19.359375 L28.5099998,24.7803169 L28.5099998,15.1538462 Z M13.328125,14.6153846 L20.0136724,19.6446155 L26.6681252,14.6153846 L13.328125,14.6153846 Z M18.3118286,20.359375 L13.34375,25.3846154 L26.6862497,25.3846154 L21.7180786,20.359375 L20.0149999,21.6399536 L18.3118286,20.359375 Z"/>
	</g>
	<!-- Social Media -->

	<!-- Pointer -->
	<symbol id="icon-pointer" fill="none" fill-rule="evenodd">

	   	<path d="M6,1 L8,1 L8,24 L6,24 L6,1 Z M9,7 L11,7 L11,24 L9,24 L9,7 Z M12,8 L14,8 L14,24 L12,24 L12,8 Z M14,12 L15,12 L15,24 L14,24 L14,12 Z M15,9 L16,9 L16,24 L15,24 L15,9 Z M16,9 L17,9 L17,21 L16,21 L16,9 Z M17,10 L18,10 L18,18 L17,18 L17,10 Z M11,11 L12,11 L12,24 L11,24 L11,11 Z M8,11 L9,11 L9,24 L8,24 L8,11 Z M5,15 L6,15 L6,22 L5,22 L5,15 Z M4,12 L5,12 L5,19 L4,19 L4,12 Z M3,12 L4,12 L4,16 L3,16 L3,12 Z M2,11 L3,11 L3,14 L2,14 L2,11 Z M1,11 L2,11 L2,13 L1,13 L1,11 Z"/>
    	<path fill="#000000" d="M5,1 L6,1 L6,15 L5,15 L5,1 Z M8,1 L9,1 L9,11 L8,11 L8,1 Z M9,6 L11,6 L11,7 L9,7 L9,6 Z M11,7 L12,7 L12,11 L11,11 L11,7 Z M12,7 L14,7 L14,8 L12,8 L12,7 Z M14,8 L15,8 L15,12 L14,12 L14,8 Z M15,8 L17,8 L17,9 L15,9 L15,8 Z M17,9 L18,9 L18,10 L17,10 L17,9 Z M18,10 L19,10 L19,18 L18,18 L18,10 Z M17,18 L18,18 L18,21 L17,21 L17,18 Z M16,21 L17,21 L17,25 L16,25 L16,21 Z M3,11 L5,11 L5,12 L3,12 L3,11 Z M0,10 L3,10 L3,11 L0,11 L0,10 Z M0,11 L1,11 L1,13 L0,13 L0,11 Z M1,13 L2,13 L2,14 L1,14 L1,13 Z M2,14 L3,14 L3,16 L2,16 L2,14 Z M3,16 L4,16 L4,19 L3,19 L3,16 Z M4,19 L5,19 L5,22 L4,22 L4,19 Z M5,22 L6,22 L6,25 L5,25 L5,22 Z M6,24 L16,24 L16,25 L6,25 L6,24 Z M6,0 L8,0 L8,1 L6,1 L6,0 Z"/>
  	</symbol>

	<g id="icon-play" fill="none" fill-rule="evenodd" stroke-width="2">
		<circle cx="40" cy="40" r="39"/>
		<path d="M29,58.1957524 L29,21.8042476 L58.1132038,40 L29,58.1957524 Z"/>
	</g>

	<g id="icon-search" fill-rule="evenodd" stroke-width="2">

		<path fill="#141413" fill-rule="evenodd" d="M10.6792738,9.96563511 L10.6792738,9.96563511 L16,15.2863613 L15.2863613,16 L9.96563511,10.6792738 C8.91063763,11.5723422 7.54591877,12.1108496 6.05542478,12.1108496 C2.71110602,12.1108496 0,9.39974353 0,6.05542478 C0,2.71110602 2.71110602,0 6.05542478,0 C9.39974353,0 12.1108496,2.71110602 12.1108496,6.05542478 C12.1108496,7.54591877 11.5723422,8.91063763 10.6792738,9.96563511 Z M6.05542478,11.1016121 C8.84235707,11.1016121 11.1016121,8.84235707 11.1016121,6.05542478 C11.1016121,3.26849248 8.84235707,1.00923746 6.05542478,1.00923746 C3.26849248,1.00923746 1.00923746,3.26849248 1.00923746,6.05542478 C1.00923746,8.84235707 3.26849248,11.1016121 6.05542478,11.1016121 Z"/>	</g>

	<g id="icon-hamburger" fill-rule="evenodd">
		<rect width="24" height="2"/>
		<rect width="24" height="2" y="6"/>
		<rect width="24" height="2" y="12"/>
	</g>

	<g id="icon-hamburger-hit" fill-rule="evenodd">
		<rect width="31.93" height="2" x="-3.966" y="11" transform="rotate(45 11.999 12)"/>
		<rect width="31.93" height="2" x="-3.966" y="11" transform="rotate(135 11.999 12)"/>
	</g>

	<g id="icon-expand" fill-rule="evenodd">
		<rect width="1" height="32" x="15.5"/>
		<rect width="1" height="32" x="15.5" transform="rotate(90 16 16)"/>
	</g>
	
	<g id="icon-collapse" fill-rule="evenodd">
		<rect width="1" height="32" x="15.5" y="-15" fill="#B4B0A9" fill-rule="evenodd" transform="rotate(90 16 1)"/>
	</g>

	<g id="icon-dropdown" fill-rule="evenodd">
		<rect width="22.123" height="1" x="-2.725" y="7.51" transform="rotate(43.75 8.336 8.01)"/>
		<rect width="22.123" height="1" x="12.605" y="7.51" transform="scale(-1 1) rotate(43.75 0 -50.935)"/>
	</g>

	<g id="icon-bwd-arrow" transform="rotate(-180 16 7)">
		<polygon points="8 8.5 31 8.5 31 7.5 8 7.5"/>
		<polygon points="26 13.295 26.747 14 32 8 26.747 2 26 2.705 30.635 8"/>
	</g>	

	<g id="icon-fwd-arrow">
		<polygon points="0 6.5 23 6.5 23 5.5 0 5.5"/>
		<polygon points="18 11.295 18.747 12 24 6 18.747 0 18 .705 22.635 6"/>
	</g>

	<g id="icon-nav-edge">
		<polygon points="0 56 2.966 56 32 28 2.966 0 0 0 29.066 28"/>
	</g>

	<g id="icon-globe" fill-rule="evenodd">
	    <path d="M25.5057255,9.14980392 L21.5198431,9.14980392 C21.1763137,6.94980392 20.697098,5.01254902 20.0837647,3.55764706 C19.912,3.14901961 19.7284706,2.78117647 19.5347451,2.45333333 C20.4672941,2.80156863 21.3488627,3.36235294 22.1598431,4.11058824 C23.499451,5.34588235 24.6484706,7.07215686 25.5057255,9.14980392 L25.5057255,9.14980392 Z M27.1653333,17.5160784 L22.1606275,17.5160784 C22.1386667,15.0698039 21.9833725,12.6321569 21.6986667,10.4047059 L25.9723922,10.4047059 C26.6861176,12.5294118 27.1057255,14.9482353 27.1653333,17.5160784 L27.1653333,17.5160784 Z M25.9637647,25.8823529 L21.6955294,25.8823529 C21.9818039,23.6556863 22.1378824,21.2180392 22.1606275,18.7709804 L27.164549,18.7709804 C27.1025882,21.3396078 26.6806275,23.7576471 25.9637647,25.8823529 L25.9637647,25.8823529 Z M16.0892549,32.9066667 C15.486902,31.7152941 14.8986667,29.7458824 14.4665098,27.1372549 L20.2304314,27.1372549 C19.7982745,29.7458824 19.2100392,31.7152941 18.6076863,32.9066667 C18.1763137,33.7592157 17.7386667,34.2258824 17.3480784,34.2258824 C16.9582745,34.2258824 16.5206275,33.7592157 16.0892549,32.9066667 L16.0892549,32.9066667 Z M12.537098,4.11058824 C13.3480784,3.36235294 14.2296471,2.80156863 15.1621961,2.45333333 C14.9684706,2.78117647 14.7849412,3.14901961 14.6123922,3.55764706 C13.9998431,5.01254902 13.5206275,6.94980392 13.177098,9.14980392 L9.19121569,9.14980392 C10.0484706,7.07215686 11.1974902,5.34588235 12.537098,4.11058824 L12.537098,4.11058824 Z M8.72454902,10.4047059 L12.9982745,10.4047059 C12.7135686,12.6321569 12.5582745,15.0698039 12.5355294,17.5160784 L7.53160784,17.5160784 C7.59121569,14.9482353 8.01082353,12.5294118 8.72454902,10.4047059 L8.72454902,10.4047059 Z M7.53160784,18.7709804 L12.5363137,18.7709804 C12.5590588,21.2180392 12.7151373,23.6556863 13.0006275,25.8823529 L8.73317647,25.8823529 C8.01631373,23.7576471 7.59435294,21.3396078 7.53160784,18.7709804 L7.53160784,18.7709804 Z M15.1621961,33.8109804 C14.2296471,33.4627451 13.3480784,32.9019608 12.537098,32.1545098 C11.2021961,30.9231373 10.057098,29.2047059 9.20062745,27.1372549 L13.1802353,27.1372549 C13.5237647,29.3278431 14.0021961,31.2572549 14.6123922,32.7066667 C14.7849412,33.1160784 14.9684706,33.4831373 15.1621961,33.8109804 L15.1621961,33.8109804 Z M20.4186667,25.8823529 L14.2774902,25.8823529 C13.9990588,23.8243137 13.8210196,21.4345098 13.7951373,18.7709804 L20.9018039,18.7709804 C20.8759216,21.4345098 20.6978824,23.8243137 20.4186667,25.8823529 L20.4186667,25.8823529 Z M22.1598431,32.1545098 C21.3488627,32.9019608 20.4672941,33.4627451 19.5347451,33.8109804 C19.7284706,33.4831373 19.912,33.1160784 20.0837647,32.7066667 C20.6947451,31.2572549 21.1731765,29.3278431 21.5167059,27.1372549 L25.4963137,27.1372549 C24.6398431,29.2047059 23.4947451,30.9231373 22.1598431,32.1545098 L22.1598431,32.1545098 Z M20.9018039,17.5160784 L13.7951373,17.5160784 C13.819451,14.852549 13.9967059,12.4635294 14.2751373,10.4047059 L20.4218039,10.4047059 C20.699451,12.4635294 20.8774902,14.852549 20.9018039,17.5160784 L20.9018039,17.5160784 Z M18.6076863,3.35764706 C19.2116078,4.55294118 19.8014118,6.53019608 20.2335686,9.14980392 L14.4625882,9.14980392 C14.8955294,6.53019608 15.484549,4.55294118 16.0892549,3.35764706 C16.5206275,2.50509804 16.9582745,2.03921569 17.3480784,2.03921569 C17.7386667,2.03921569 18.1763137,2.50509804 18.6076863,3.35764706 L18.6076863,3.35764706 Z M11.9418039,2.99294118 C11.192,3.65098039 10.4955294,4.43843137 9.86572549,5.34039216 C9.0892549,6.45333333 8.41317647,7.73490196 7.86337255,9.14980392 L5.56533333,9.14980392 L4.00141176,9.14980392 C5.90572549,6.32941176 8.68690196,4.16 11.9418039,2.99294118 L11.9418039,2.99294118 Z M3.23827451,10.4047059 L4.70494118,10.4047059 L7.42258824,10.4047059 C6.73396078,12.56 6.32454902,14.9686275 6.26729412,17.5160784 L2.54101961,17.5160784 L1.28611765,17.5160784 C1.38337255,14.9482353 2.06964706,12.5294118 3.23827451,10.4047059 L3.23827451,10.4047059 Z M1.28690196,18.7709804 L2.54258824,18.7709804 L6.26807843,18.7709804 C6.32768627,21.3192157 6.73945098,23.7270588 7.43043137,25.8823529 L4.71905882,25.8823529 L3.25160784,25.8823529 C2.07905882,23.7576471 1.38886275,21.3396078 1.28690196,18.7709804 L1.28690196,18.7709804 Z M4.01709804,27.1372549 L5.58180392,27.1372549 L7.872,27.1372549 C8.42023529,28.5435294 9.09317647,29.8180392 9.86572549,30.9247059 C10.4955294,31.8266667 11.192,32.6141176 11.9418039,33.2713725 C8.69552941,32.1082353 5.92062745,29.9466667 4.01709804,27.1372549 L4.01709804,27.1372549 Z M29.1151373,27.1372549 L30.6798431,27.1372549 C28.7763137,29.9466667 26.0014118,32.1082353 22.7543529,33.2713725 C23.5041569,32.6141176 24.2014118,31.8266667 24.8304314,30.9247059 C25.6037647,29.8180392 26.2759216,28.5435294 26.8241569,27.1372549 L29.1151373,27.1372549 Z M33.1629804,21.0541176 C32.8461176,22.7741176 32.2633725,24.4 31.444549,25.8823529 L29.9778824,25.8823529 L27.2665098,25.8823529 C27.9574902,23.7270588 28.3692549,21.3192157 28.4288627,18.7709804 L31.9951373,18.7709804 C31.8108235,18.4039216 31.6021961,17.9835294 31.3739608,17.5160784 L28.4288627,17.5160784 C28.3716078,14.9686275 27.9621961,12.56 27.2735686,10.4047059 L28.2837647,10.4047059 C28.1284706,9.96862745 27.992,9.55058824 27.872,9.14980392 L26.8335686,9.14980392 C26.2837647,7.73490196 25.6076863,6.45333333 24.8312157,5.34039216 C24.2014118,4.43843137 23.5049412,3.65098039 22.7551373,2.99294118 C24.4916078,3.61568627 26.0963137,4.5145098 27.5002353,5.65882353 C27.5386667,5.42823529 27.5872941,5.20078431 27.6484706,4.97882353 C27.7080784,4.76156863 27.7778824,4.54980392 27.8586667,4.3427451 C24.939451,2.11294118 21.297098,0.784313725 17.3480784,0.784313725 C7.78258824,0.784313725 -0.000156862741,8.56627451 -0.000156862741,18.1317647 C-0.000156862741,27.6972549 7.78258824,35.48 17.3480784,35.48 C23.6186667,35.48 29.1229804,32.1356863 32.1708235,27.1372549 L32.206902,27.1372549 L32.206902,27.0768627 C33.0061176,25.7537255 33.6304314,24.3145098 34.0555294,22.7929412 L33.617098,21.9388235 L33.1629804,21.0541176 Z"/>
	    <path d="M34.590902,16.2346667 C34.4081569,16.6134902 34.2316863,16.9750588 34.0693333,17.302902 C34.0544314,17.273098 34.0379608,17.2385882 34.0222745,17.208 C33.7744314,16.7060392 33.4999216,16.1389804 33.2128627,15.5334902 C32.4497255,13.9264314 31.6065882,12.0542745 30.961098,10.4040784 C30.7901176,9.96643137 30.6340392,9.54603922 30.4967843,9.14996078 C30.4395294,8.98368627 30.3830588,8.81976471 30.3328627,8.66368627 C30.1461961,8.08172549 30.0128627,7.57192157 29.9524706,7.16721569 C29.9289412,7.00956863 29.9140392,6.8652549 29.9140392,6.74133333 C29.9140392,6.57113725 29.9446275,6.40878431 29.9642353,6.24329412 C30.0238431,5.75388235 30.1642353,5.29427451 30.3791373,4.87152941 C31.0669804,3.5225098 32.4544314,2.58682353 34.0693333,2.58682353 C36.3603137,2.58682353 38.2246275,4.45113725 38.2246275,6.74133333 C38.2246275,8.03152941 36.8669804,11.328 35.536,14.2260392 C35.2120784,14.9319216 34.8912941,15.6111373 34.590902,16.2346667 M34.0693333,1.33192157 C32.0905098,1.33192157 30.361098,2.40329412 29.4183529,3.99309804 C29.1963922,4.36721569 29.0152157,4.768 28.8881569,5.19309804 C28.8191373,5.4252549 28.7689412,5.66447059 28.7305098,5.90760784 C28.6905098,6.168 28.6638431,6.43152941 28.6614902,6.70211765 C28.6614902,6.71545098 28.6599216,6.728 28.6599216,6.74133333 C28.6599216,7.32015686 28.8646275,8.17113725 29.1799216,9.14996078 C29.1924706,9.18760784 29.2050196,9.22603922 29.2175686,9.26447059 C29.3375686,9.6307451 29.4701176,10.0095686 29.6175686,10.4040784 C30.2967843,12.2221176 31.2183529,14.2668235 32.003451,15.9209412 C32.2858039,16.515451 32.5477647,17.0550588 32.7744314,17.5162353 C33.0473725,18.0699608 33.2661961,18.5052549 33.4018824,18.7703529 C33.4042353,18.7766275 33.4065882,18.7797647 33.4089412,18.7852549 C33.4481569,18.8621176 33.4881569,18.9397647 33.510902,18.9852549 L33.9752157,19.8903529 L34.0693333,20.073098 L34.6277647,18.9852549 C34.6387451,18.9632941 34.6622745,18.9170196 34.6771765,18.8872157 C34.8599216,18.5303529 35.3101176,17.6401569 35.8740392,16.4683922 C37.3250196,13.4519216 39.4795294,8.65270588 39.4795294,6.74133333 C39.4795294,3.75858824 37.0528627,1.33192157 34.0693333,1.33192157"/>
	    <path d="M34.0694118,8.07058824 C33.3015686,8.07058824 32.6756863,7.44470588 32.6756863,6.67686275 C32.6756863,5.90823529 33.3015686,5.28235294 34.0694118,5.28235294 C34.8372549,5.28235294 35.4631373,5.90823529 35.4631373,6.67686275 C35.4631373,7.44470588 34.8372549,8.07058824 34.0694118,8.07058824 M34.0694118,4.02823529 C32.8176471,4.02823529 31.7713725,4.90352941 31.4968627,6.07294118 C31.4505882,6.26745098 31.4207843,6.46823529 31.4207843,6.67686275 C31.4207843,8.01490196 32.4215686,9.11294118 33.7117647,9.28941176 C33.8301961,9.30509804 33.9470588,9.3254902 34.0694118,9.3254902 C35.5298039,9.3254902 36.7180392,8.1372549 36.7180392,6.67686275 C36.7180392,5.21568627 35.5298039,4.02823529 34.0694118,4.02823529"/>
	  </g>

</defs>
</svg>
