<!-- Generated by IcoMoon.io -->
<svg version="1.1" xmlns="http://www.w3.org/2000/svg" width="256" height="256" viewBox="0 0 256 256">
<title></title>
<g id="icomoon-ignore">
    <line stroke-width="1" x1="16" y1="0" x2="16" y2="256" stroke="#449FDB" opacity="0.3"></line>
    <line stroke-width="1" x1="32" y1="0" x2="32" y2="256" stroke="#449FDB" opacity="1"></line>
    <line stroke-width="1" x1="48" y1="0" x2="48" y2="256" stroke="#449FDB" opacity="0.3"></line>
    <line stroke-width="1" x1="64" y1="0" x2="64" y2="256" stroke="#449FDB" opacity="1"></line>
    <line stroke-width="1" x1="80" y1="0" x2="80" y2="256" stroke="#449FDB" opacity="0.3"></line>
    <line stroke-width="1" x1="96" y1="0" x2="96" y2="256" stroke="#449FDB" opacity="1"></line>
    <line stroke-width="1" x1="112" y1="0" x2="112" y2="256" stroke="#449FDB" opacity="0.3"></line>
    <line stroke-width="1" x1="128" y1="0" x2="128" y2="256" stroke="#449FDB" opacity="1"></line>
    <line stroke-width="1" x1="144" y1="0" x2="144" y2="256" stroke="#449FDB" opacity="0.3"></line>
    <line stroke-width="1" x1="160" y1="0" x2="160" y2="256" stroke="#449FDB" opacity="1"></line>
    <line stroke-width="1" x1="176" y1="0" x2="176" y2="256" stroke="#449FDB" opacity="0.3"></line>
    <line stroke-width="1" x1="192" y1="0" x2="192" y2="256" stroke="#449FDB" opacity="1"></line>
    <line stroke-width="1" x1="208" y1="0" x2="208" y2="256" stroke="#449FDB" opacity="0.3"></line>
    <line stroke-width="1" x1="224" y1="0" x2="224" y2="256" stroke="#449FDB" opacity="1"></line>
    <line stroke-width="1" x1="240" y1="0" x2="240" y2="256" stroke="#449FDB" opacity="0.3"></line>
    <line stroke-width="1" x1="0" y1="16" x2="256" y2="16" stroke="#449FDB" opacity="0.3"></line>
    <line stroke-width="1" x1="0" y1="32" x2="256" y2="32" stroke="#449FDB" opacity="1"></line>
    <line stroke-width="1" x1="0" y1="48" x2="256" y2="48" stroke="#449FDB" opacity="0.3"></line>
    <line stroke-width="1" x1="0" y1="64" x2="256" y2="64" stroke="#449FDB" opacity="1"></line>
    <line stroke-width="1" x1="0" y1="80" x2="256" y2="80" stroke="#449FDB" opacity="0.3"></line>
    <line stroke-width="1" x1="0" y1="96" x2="256" y2="96" stroke="#449FDB" opacity="1"></line>
    <line stroke-width="1" x1="0" y1="112" x2="256" y2="112" stroke="#449FDB" opacity="0.3"></line>
    <line stroke-width="1" x1="0" y1="128" x2="256" y2="128" stroke="#449FDB" opacity="1"></line>
    <line stroke-width="1" x1="0" y1="144" x2="256" y2="144" stroke="#449FDB" opacity="0.3"></line>
    <line stroke-width="1" x1="0" y1="160" x2="256" y2="160" stroke="#449FDB" opacity="1"></line>
    <line stroke-width="1" x1="0" y1="176" x2="256" y2="176" stroke="#449FDB" opacity="0.3"></line>
    <line stroke-width="1" x1="0" y1="192" x2="256" y2="192" stroke="#449FDB" opacity="1"></line>
    <line stroke-width="1" x1="0" y1="208" x2="256" y2="208" stroke="#449FDB" opacity="0.3"></line>
    <line stroke-width="1" x1="0" y1="224" x2="256" y2="224" stroke="#449FDB" opacity="1"></line>
    <line stroke-width="1" x1="0" y1="240" x2="256" y2="240" stroke="#449FDB" opacity="0.3"></line>
</g>
<path d="M197.354 233.079c-27.825 0-50.468-22.629-50.468-50.442 0-3.972 0.512-7.822 1.386-11.534 0.66-2.817 1.519-5.563 2.634-8.18 7.698-18.048 25.615-30.733 46.447-30.733 6.005 0 11.744 1.104 17.089 3.037 2.859 1.033 5.59 2.301 8.184 3.809 15.037 8.748 25.196 24.991 25.196 43.601 0 27.813-22.638 50.442-50.468 50.442v0zM222.626 129.813c-2.634-1.268-5.35-2.382-8.184-3.252-5.406-1.646-11.14-2.551-17.089-2.551-25.415 0-47.041 16.269-55.163 38.913-0.952 2.654-1.77 5.368-2.333 8.18-0.747 3.732-1.151 7.587-1.151 11.534 0 32.322 26.305 58.623 58.646 58.623s58.646-26.3 58.646-58.623c0-23.278-13.672-43.366-33.374-52.825v0zM221.29 163.623l-29.364 29.342-11.585-9.488-0.967-0.971-0.967 0.971-4.818 4.811 18.337 16.252 35.149-35.135-5.785-5.782zM95.779 116.571v-8.18h40.918v8.18h-40.918zM62.451 107.981v9.361c0 5.491-4.475 9.96-9.963 9.96h-9.37c-5.488 0-9.959-4.469-9.959-9.96v-9.362c0-5.486 4.47-9.954 9.959-9.954h9.37c5.488 0 9.963 4.469 9.963 9.954v0zM43.117 89.847c-10.005 0-18.142 8.134-18.142 18.135v9.361c0 10.001 8.138 18.14 18.142 18.14h9.37c10.005 0 18.142-8.139 18.142-18.14v-9.361c0-10.001-8.138-18.135-18.142-18.135h-9.37zM8.178 22.916h206.265v16.796h-206.265v-16.796zM8.178 64.682v-16.796h206.265v16.796h-206.265zM91.519 162.923h-83.34v-90.061h206.265v45.263c2.798 0.741 5.539 1.616 8.184 2.694v-106.079h-222.627v156.363h131.589c0.486-2.781 1.084-5.527 1.908-8.18h-41.977z"></path>
</svg>
