<!-- Generated by IcoMoon.io -->
<svg version="1.1" xmlns="http://www.w3.org/2000/svg" width="256" height="256" viewBox="0 0 256 256">
<title></title>
<g id="icomoon-ignore">
    <line stroke-width="1" x1="16" y1="0" x2="16" y2="256" stroke="#449FDB" opacity="0.3"></line>
    <line stroke-width="1" x1="32" y1="0" x2="32" y2="256" stroke="#449FDB" opacity="1"></line>
    <line stroke-width="1" x1="48" y1="0" x2="48" y2="256" stroke="#449FDB" opacity="0.3"></line>
    <line stroke-width="1" x1="64" y1="0" x2="64" y2="256" stroke="#449FDB" opacity="1"></line>
    <line stroke-width="1" x1="80" y1="0" x2="80" y2="256" stroke="#449FDB" opacity="0.3"></line>
    <line stroke-width="1" x1="96" y1="0" x2="96" y2="256" stroke="#449FDB" opacity="1"></line>
    <line stroke-width="1" x1="112" y1="0" x2="112" y2="256" stroke="#449FDB" opacity="0.3"></line>
    <line stroke-width="1" x1="128" y1="0" x2="128" y2="256" stroke="#449FDB" opacity="1"></line>
    <line stroke-width="1" x1="144" y1="0" x2="144" y2="256" stroke="#449FDB" opacity="0.3"></line>
    <line stroke-width="1" x1="160" y1="0" x2="160" y2="256" stroke="#449FDB" opacity="1"></line>
    <line stroke-width="1" x1="176" y1="0" x2="176" y2="256" stroke="#449FDB" opacity="0.3"></line>
    <line stroke-width="1" x1="192" y1="0" x2="192" y2="256" stroke="#449FDB" opacity="1"></line>
    <line stroke-width="1" x1="208" y1="0" x2="208" y2="256" stroke="#449FDB" opacity="0.3"></line>
    <line stroke-width="1" x1="224" y1="0" x2="224" y2="256" stroke="#449FDB" opacity="1"></line>
    <line stroke-width="1" x1="240" y1="0" x2="240" y2="256" stroke="#449FDB" opacity="0.3"></line>
    <line stroke-width="1" x1="0" y1="16" x2="256" y2="16" stroke="#449FDB" opacity="0.3"></line>
    <line stroke-width="1" x1="0" y1="32" x2="256" y2="32" stroke="#449FDB" opacity="1"></line>
    <line stroke-width="1" x1="0" y1="48" x2="256" y2="48" stroke="#449FDB" opacity="0.3"></line>
    <line stroke-width="1" x1="0" y1="64" x2="256" y2="64" stroke="#449FDB" opacity="1"></line>
    <line stroke-width="1" x1="0" y1="80" x2="256" y2="80" stroke="#449FDB" opacity="0.3"></line>
    <line stroke-width="1" x1="0" y1="96" x2="256" y2="96" stroke="#449FDB" opacity="1"></line>
    <line stroke-width="1" x1="0" y1="112" x2="256" y2="112" stroke="#449FDB" opacity="0.3"></line>
    <line stroke-width="1" x1="0" y1="128" x2="256" y2="128" stroke="#449FDB" opacity="1"></line>
    <line stroke-width="1" x1="0" y1="144" x2="256" y2="144" stroke="#449FDB" opacity="0.3"></line>
    <line stroke-width="1" x1="0" y1="160" x2="256" y2="160" stroke="#449FDB" opacity="1"></line>
    <line stroke-width="1" x1="0" y1="176" x2="256" y2="176" stroke="#449FDB" opacity="0.3"></line>
    <line stroke-width="1" x1="0" y1="192" x2="256" y2="192" stroke="#449FDB" opacity="1"></line>
    <line stroke-width="1" x1="0" y1="208" x2="256" y2="208" stroke="#449FDB" opacity="0.3"></line>
    <line stroke-width="1" x1="0" y1="224" x2="256" y2="224" stroke="#449FDB" opacity="1"></line>
    <line stroke-width="1" x1="0" y1="240" x2="256" y2="240" stroke="#449FDB" opacity="0.3"></line>
</g>
<path d="M236.139 157.699l-10.473-10.611v-51.781h-7.374v71.763h-14.273l-0.037 0.963h-0.009l-0.078 2.196c-0.009 0.178 0.023 0.388 0.028 0.579 0.023 1.117 0.226 2.387 0.572 3.733h21.172v-16.885l5.257 5.326c4.718 4.78 8.702 14.525 8.702 21.286v67.647h7.374v-67.647c0-8.732-4.768-20.403-10.861-26.57v0zM145.643 123.52v-28.209h-7.378v79.233h17.363l0.286-3.737 0.286-3.738h-10.556zM180.425 107.146c2.707 0 5.267 0.607 7.595 1.659 0.922 0.416 1.803 0.897 2.643 1.453-2.952 1.953-6.461 3.112-10.238 3.112s-7.286-1.159-10.233-3.112c0.835-0.556 1.715-1.037 2.638-1.453 2.329-1.051 4.888-1.659 7.595-1.659zM161.642 126.175c0-3.92 1.18-7.569 3.196-10.601 4.358 3.294 9.744 5.27 15.588 5.27 5.848 0 11.23-1.976 15.592-5.27 2.016 3.032 3.196 6.681 3.196 10.601 0 3.387-0.95 6.527-2.49 9.288 1.951 1.799 3.565 3.92 4.833 6.284 3.155-4.378 5.036-9.75 5.036-15.572 0-5.975-1.988-11.479-5.294-15.918 0.355-0.477 0.701-0.953 1.024-1.453 2.527-3.911 4.040-8.526 4.22-13.493h-7.425c-0.18 3.546-1.255 6.854-3.099 9.629-4.363-3.294-9.744-5.27-15.592-5.27-5.843 0-11.23 1.976-15.588 5.27-1.845-2.775-2.919-6.083-3.099-9.629h-7.425c0.18 4.966 1.692 9.582 4.22 13.493 0.323 0.5 0.668 0.977 1.024 1.453-3.306 4.439-5.294 9.942-5.294 15.918 0 6.153 2.098 11.806 5.58 16.31 1.185-2.406 2.693-4.625 4.575-6.485-1.725-2.878-2.776-6.219-2.776-9.826zM208.006 193.661l-3.468-3.513c-3.551-3.602-6.535-9.975-7.595-15.605-0.244-1.304-0.374-2.556-0.392-3.738-0.005-0.276-0.042-0.579-0.028-0.845l0.074-2.196 0.028-0.691 0.069-1.967 0.3-8.419 0.133-3.602c0-2.009-0.406-3.92-1.065-5.704-0.89-2.411-2.301-4.546-4.127-6.274-2.896-2.738-6.756-4.452-11.026-4.452-4.506 0-8.578 1.874-11.52 4.85-1.775 1.794-3.067 4.013-3.851 6.443-0.503 1.547-0.844 3.159-0.844 4.85l-1.093 14.278-0.291 3.733-0.286 3.738-2.666 34.751c-0.627 8.148 1.102 21.034 3.855 28.715l6.355 17.754 7.489-2.616-6.908-17.684c-2.412-6.732-3.984-18.45-3.436-25.584l2.707-35.335 0.286-3.738 0.286-3.733 1.070-13.988c0-0.598 0.065-1.182 0.175-1.748 0.567-2.892 2.513-5.275 5.11-6.443 1.093-0.486 2.292-0.771 3.56-0.771 1.19 0 2.325 0.248 3.362 0.682 2.619 1.089 4.598 3.406 5.244 6.195 0.143 0.631 0.24 1.28 0.24 1.948l-0.125 3.471-0.392 10.653-0.014 0.421-0.078 2.191c-0.014 0.36 0.032 0.752 0.037 1.121 0.014 1.205 0.12 2.453 0.309 3.738 0.217 1.481 0.526 2.99 0.946 4.513 1.711 6.167 4.953 12.395 8.887 16.38l9.565 9.69 2.615-2.64 2.61-2.644-6.106-6.181zM131.879 87.834h100.747v-7.475h-100.747zM16.378 56.779v-49.071h222.496v49.071h-222.496zM9 64.254h237.249v-64.017h-237.249v64.017zM16.378 98.954v-9.778h9.652v9.778h-9.652zM9 106.424h24.405v-24.725h-24.405v24.725zM54.218 98.954v-9.778h9.652v9.778h-9.652zM46.839 106.424h24.405v-24.725h-24.405v24.725zM92.056 98.954v-9.778h9.652v9.778h-9.652zM84.678 106.424h24.405v-24.725h-24.405v24.725zM16.378 140.161v-9.779h9.652v9.779h-9.652zM9 147.632h24.405v-24.725h-24.405v24.725zM54.218 140.161v-9.779h9.652v9.779h-9.652zM46.839 147.632h24.405v-24.725h-24.405v24.725zM92.056 140.161v-9.779h9.652v9.779h-9.652zM84.678 147.632h24.405v-24.725h-24.405v24.725zM16.378 179.454v-9.779h9.652v9.779h-9.652zM9 186.929h24.405v-24.725h-24.405v24.725zM54.218 179.454v-9.779h9.652v9.779h-9.652zM46.839 186.929h24.405v-24.725h-24.405v24.725zM92.056 179.454v-9.779h9.652v9.779h-9.652zM84.678 186.929h24.405v-24.725h-24.405v24.725z"></path>
</svg>
