<!-- Generated by IcoMoon.io -->
<svg version="1.1" xmlns="http://www.w3.org/2000/svg" width="256" height="256" viewBox="0 0 256 256">
<title></title>
<g id="icomoon-ignore">
    <line stroke-width="1" x1="16" y1="0" x2="16" y2="256" stroke="#449FDB" opacity="0.3"></line>
    <line stroke-width="1" x1="32" y1="0" x2="32" y2="256" stroke="#449FDB" opacity="1"></line>
    <line stroke-width="1" x1="48" y1="0" x2="48" y2="256" stroke="#449FDB" opacity="0.3"></line>
    <line stroke-width="1" x1="64" y1="0" x2="64" y2="256" stroke="#449FDB" opacity="1"></line>
    <line stroke-width="1" x1="80" y1="0" x2="80" y2="256" stroke="#449FDB" opacity="0.3"></line>
    <line stroke-width="1" x1="96" y1="0" x2="96" y2="256" stroke="#449FDB" opacity="1"></line>
    <line stroke-width="1" x1="112" y1="0" x2="112" y2="256" stroke="#449FDB" opacity="0.3"></line>
    <line stroke-width="1" x1="128" y1="0" x2="128" y2="256" stroke="#449FDB" opacity="1"></line>
    <line stroke-width="1" x1="144" y1="0" x2="144" y2="256" stroke="#449FDB" opacity="0.3"></line>
    <line stroke-width="1" x1="160" y1="0" x2="160" y2="256" stroke="#449FDB" opacity="1"></line>
    <line stroke-width="1" x1="176" y1="0" x2="176" y2="256" stroke="#449FDB" opacity="0.3"></line>
    <line stroke-width="1" x1="192" y1="0" x2="192" y2="256" stroke="#449FDB" opacity="1"></line>
    <line stroke-width="1" x1="208" y1="0" x2="208" y2="256" stroke="#449FDB" opacity="0.3"></line>
    <line stroke-width="1" x1="224" y1="0" x2="224" y2="256" stroke="#449FDB" opacity="1"></line>
    <line stroke-width="1" x1="240" y1="0" x2="240" y2="256" stroke="#449FDB" opacity="0.3"></line>
    <line stroke-width="1" x1="0" y1="16" x2="256" y2="16" stroke="#449FDB" opacity="0.3"></line>
    <line stroke-width="1" x1="0" y1="32" x2="256" y2="32" stroke="#449FDB" opacity="1"></line>
    <line stroke-width="1" x1="0" y1="48" x2="256" y2="48" stroke="#449FDB" opacity="0.3"></line>
    <line stroke-width="1" x1="0" y1="64" x2="256" y2="64" stroke="#449FDB" opacity="1"></line>
    <line stroke-width="1" x1="0" y1="80" x2="256" y2="80" stroke="#449FDB" opacity="0.3"></line>
    <line stroke-width="1" x1="0" y1="96" x2="256" y2="96" stroke="#449FDB" opacity="1"></line>
    <line stroke-width="1" x1="0" y1="112" x2="256" y2="112" stroke="#449FDB" opacity="0.3"></line>
    <line stroke-width="1" x1="0" y1="128" x2="256" y2="128" stroke="#449FDB" opacity="1"></line>
    <line stroke-width="1" x1="0" y1="144" x2="256" y2="144" stroke="#449FDB" opacity="0.3"></line>
    <line stroke-width="1" x1="0" y1="160" x2="256" y2="160" stroke="#449FDB" opacity="1"></line>
    <line stroke-width="1" x1="0" y1="176" x2="256" y2="176" stroke="#449FDB" opacity="0.3"></line>
    <line stroke-width="1" x1="0" y1="192" x2="256" y2="192" stroke="#449FDB" opacity="1"></line>
    <line stroke-width="1" x1="0" y1="208" x2="256" y2="208" stroke="#449FDB" opacity="0.3"></line>
    <line stroke-width="1" x1="0" y1="224" x2="256" y2="224" stroke="#449FDB" opacity="1"></line>
    <line stroke-width="1" x1="0" y1="240" x2="256" y2="240" stroke="#449FDB" opacity="0.3"></line>
</g>
<path d="M179.685 171.809v0c0-7.483 6.069-13.576 13.533-13.576 2.4 0 4.629 0.683 6.588 1.794-2.233 3.386-3.551 7.429-3.551 11.783s1.318 8.397 3.551 11.783c-1.959 1.111-4.188 1.794-6.588 1.794-7.464 0-13.533-6.093-13.533-13.576zM204.087 171.809v0c0-2.069 0.505-4.010 1.332-5.768 0.828 1.759 1.327 3.7 1.327 5.768s-0.5 4.010-1.327 5.768c-0.828-1.759-1.332-3.7-1.332-5.768zM214.583 171.809v0c0-4.353-1.317-8.397-3.551-11.783 1.959-1.111 4.183-1.794 6.588-1.794 7.464 0 13.533 6.093 13.533 13.576s-6.069 13.576-13.533 13.576c-2.405 0-4.629-0.683-6.588-1.794 2.233-3.386 3.551-7.429 3.551-11.783zM171.849 171.809v0c0 11.817 9.585 21.433 21.37 21.433 4.541 0 8.733-1.45 12.201-3.881 3.463 2.432 7.66 3.881 12.201 3.881 11.78 0 21.365-9.616 21.365-21.433s-9.585-21.433-21.365-21.433c-4.541 0-8.738 1.45-12.201 3.882-3.468-2.432-7.66-3.882-12.201-3.882-11.785 0-21.37 9.616-21.37 21.433zM30.323 124.369v-16.043c0-4.245 3.448-7.7 7.68-7.7h15.987c4.232 0 7.68 3.454 7.68 7.699v16.043c0 4.245-3.448 7.704-7.68 7.704h-15.987c-4.232 0-7.68-3.459-7.68-7.704zM22.486 124.369v0c0 8.584 6.96 15.566 15.517 15.566h15.987c8.557 0 15.517-6.982 15.517-15.566v-16.043c0-8.579-6.96-15.561-15.517-15.561h-15.987c-8.557 0-15.517 6.982-15.517 15.561v16.043zM7.837 202.686v-149.372h240.327v149.372h-240.327zM0 210.548h256v-165.095h-256v165.095zM23.549 164.483v-7.862h119.181v7.862h-119.181z"></path>
</svg>
