<!-- Generated by IcoMoon.io -->
<svg version="1.1" xmlns="http://www.w3.org/2000/svg" width="256" height="256" viewBox="0 0 256 256">
<title></title>
<g id="icomoon-ignore">
    <line stroke-width="1" x1="16" y1="0" x2="16" y2="256" stroke="#449FDB" opacity="0.3"></line>
    <line stroke-width="1" x1="32" y1="0" x2="32" y2="256" stroke="#449FDB" opacity="1"></line>
    <line stroke-width="1" x1="48" y1="0" x2="48" y2="256" stroke="#449FDB" opacity="0.3"></line>
    <line stroke-width="1" x1="64" y1="0" x2="64" y2="256" stroke="#449FDB" opacity="1"></line>
    <line stroke-width="1" x1="80" y1="0" x2="80" y2="256" stroke="#449FDB" opacity="0.3"></line>
    <line stroke-width="1" x1="96" y1="0" x2="96" y2="256" stroke="#449FDB" opacity="1"></line>
    <line stroke-width="1" x1="112" y1="0" x2="112" y2="256" stroke="#449FDB" opacity="0.3"></line>
    <line stroke-width="1" x1="128" y1="0" x2="128" y2="256" stroke="#449FDB" opacity="1"></line>
    <line stroke-width="1" x1="144" y1="0" x2="144" y2="256" stroke="#449FDB" opacity="0.3"></line>
    <line stroke-width="1" x1="160" y1="0" x2="160" y2="256" stroke="#449FDB" opacity="1"></line>
    <line stroke-width="1" x1="176" y1="0" x2="176" y2="256" stroke="#449FDB" opacity="0.3"></line>
    <line stroke-width="1" x1="192" y1="0" x2="192" y2="256" stroke="#449FDB" opacity="1"></line>
    <line stroke-width="1" x1="208" y1="0" x2="208" y2="256" stroke="#449FDB" opacity="0.3"></line>
    <line stroke-width="1" x1="224" y1="0" x2="224" y2="256" stroke="#449FDB" opacity="1"></line>
    <line stroke-width="1" x1="240" y1="0" x2="240" y2="256" stroke="#449FDB" opacity="0.3"></line>
    <line stroke-width="1" x1="0" y1="16" x2="256" y2="16" stroke="#449FDB" opacity="0.3"></line>
    <line stroke-width="1" x1="0" y1="32" x2="256" y2="32" stroke="#449FDB" opacity="1"></line>
    <line stroke-width="1" x1="0" y1="48" x2="256" y2="48" stroke="#449FDB" opacity="0.3"></line>
    <line stroke-width="1" x1="0" y1="64" x2="256" y2="64" stroke="#449FDB" opacity="1"></line>
    <line stroke-width="1" x1="0" y1="80" x2="256" y2="80" stroke="#449FDB" opacity="0.3"></line>
    <line stroke-width="1" x1="0" y1="96" x2="256" y2="96" stroke="#449FDB" opacity="1"></line>
    <line stroke-width="1" x1="0" y1="112" x2="256" y2="112" stroke="#449FDB" opacity="0.3"></line>
    <line stroke-width="1" x1="0" y1="128" x2="256" y2="128" stroke="#449FDB" opacity="1"></line>
    <line stroke-width="1" x1="0" y1="144" x2="256" y2="144" stroke="#449FDB" opacity="0.3"></line>
    <line stroke-width="1" x1="0" y1="160" x2="256" y2="160" stroke="#449FDB" opacity="1"></line>
    <line stroke-width="1" x1="0" y1="176" x2="256" y2="176" stroke="#449FDB" opacity="0.3"></line>
    <line stroke-width="1" x1="0" y1="192" x2="256" y2="192" stroke="#449FDB" opacity="1"></line>
    <line stroke-width="1" x1="0" y1="208" x2="256" y2="208" stroke="#449FDB" opacity="0.3"></line>
    <line stroke-width="1" x1="0" y1="224" x2="256" y2="224" stroke="#449FDB" opacity="1"></line>
    <line stroke-width="1" x1="0" y1="240" x2="256" y2="240" stroke="#449FDB" opacity="0.3"></line>
</g>
<path d="M128 0c70.693 0 128 57.307 128 128s-57.307 128-128 128c-70.693 0-128-57.307-128-128s57.307-128 128-128zM128 12.8c-63.624 0-115.2 51.576-115.2 115.2s51.576 115.2 115.2 115.2c63.624 0 115.2-51.576 115.2-115.2s-51.576-115.2-115.2-115.2z"></path>
<path d="M224 134.631c-0.138 0.71-0.242 1.429-0.42 2.129-1.405 5.524-4.683 9.079-10.499 10.013-3.498 0.561-6.982 0.597-10.465-0.061-5.72-1.083-8.783-4.85-10.173-10.209-0.318-1.226-0.393-2.541-0.404-3.816-0.047-5.9-0.048-11.8-0.020-17.701 0.005-0.919 0.129-1.876 0.409-2.748 0.879-2.743 2.752-3.808 5.613-3.327 1.387 0.233 2.437 0.918 2.776 2.323 0.305 1.265 0.615 2.568 0.632 3.858 0.070 5.344 0.038 10.69 0.024 16.035-0.005 1.6 0.297 3.115 0.888 4.606 0.836 2.11 2.331 3.35 4.578 3.532 1.15 0.093 2.344 0.048 3.477-0.16 1.493-0.274 2.555-1.222 3.149-2.65 0.736-1.769 1.175-3.587 1.165-5.524-0.029-5.345-0.050-10.691 0.022-16.035 0.016-1.198 0.349-2.412 0.674-3.58 0.434-1.561 1.612-2.305 3.181-2.444 1.754-0.155 3.377 0.124 4.335 1.804 0.455 0.798 0.712 1.709 1.058 2.569v21.386z"></path>
<path d="M52.303 130.798c0.188-0.422 0.317-0.699 0.436-0.981 2.081-4.93 4.169-9.856 6.237-14.793 0.748-1.786 1.809-3.311 3.017-4.757 1.123-1.344 2.447-1.638 3.972-1.228 0.562 0.151 1.113 0.388 1.638 0.657 2.516 1.286 3.234 2.828 2.515 5.739-0.421 1.703-0.923 3.407-1.599 5.006-5.838 13.806-11.718 27.591-17.603 41.373-0.757 1.771-2.073 3.074-3.522 4.135-0.561 0.411-1.458 0.517-2.161 0.418-2.406-0.339-4.556-2.432-4.498-4.564 0.045-1.683 0.28-3.462 0.864-5.005 1.498-3.957 3.215-7.817 4.896-11.69 0.316-0.728 0.249-1.241-0.118-1.905-4.297-7.783-8.601-15.563-12.811-23.401-0.733-1.365-1.229-2.963-1.495-4.522-0.363-2.121 0.685-3.959 2.114-5.132 1.779-1.462 3.98-1.886 5.961-0.312 1.056 0.839 2.048 1.945 2.714 3.161 3.029 5.535 5.931 11.153 8.879 16.741 0.159 0.302 0.32 0.602 0.564 1.061z"></path>
<path d="M98.609 127.931c-0.254-1.324-0.368-2.686-0.784-3.965-1.882-5.772-8.883-7.75-13.638-3.886-2.188 1.778-3.114 4.106-3.323 6.725-0.236 2.958 0.278 5.737 2.362 8.118 3.776 4.312 10.352 3.924 13.518-0.786 1.274-1.895 1.731-3.981 1.865-6.206zM89.016 147.2c-6.915-0.138-12.2-3.552-15.811-9.295-5.061-8.049-3.094-18.723 4.458-24.888 6.882-5.618 16.904-5.623 23.8-0.011 11.086 9.023 9.332 25.736-3.377 32.213-2.661 1.356-5.52 1.969-9.070 1.981z"></path>
<path d="M173.969 127.834c3.357 3.414 6.701 6.794 10.021 10.201 1.314 1.349 1.988 2.966 1.392 4.941-0.578 1.913-1.783 3.175-3.638 3.551-1.994 0.404-3.816-0.070-5.34-1.579-2.56-2.532-5.113-5.072-7.665-7.613-1.531-1.525-3.053-3.060-4.582-4.587-0.153-0.153-0.325-0.281-0.611-0.526 0 0.444 0 0.731 0 1.018-0.002 2.873 0.021 5.747-0.014 8.619-0.041 3.431-2.85 6.583-7.087 4.851-2.049-0.838-2.79-2.935-2.806-5.108-0.069-9.008-0.023-18.016-0.017-27.025 0.001-1.525 0.508-2.873 1.338-4.074 1.581-2.289 5.498-2.262 7.316 0.031 0.928 1.169 1.299 2.536 1.291 4.064-0.016 3.172 0.004 6.344 0.010 9.516 0 0.028 0.015 0.055 0.065 0.228 0.247-0.25 0.458-0.451 0.656-0.665 3.595-3.92 7.183-7.846 10.785-11.758 0.488-0.53 1.075-0.957 1.55-1.499 2.464-2.807 7.057-0.381 7.721 2.723 0.29 1.355-0.127 2.558-0.905 3.6-0.923 1.235-1.866 2.459-2.874 3.612-2.153 2.463-4.353 4.877-6.533 7.312-0.018 0.020-0.023 0.054-0.070 0.168z"></path>
<path d="M147.159 124.087c0 3.299 0.065 6.6-0.018 9.897-0.084 3.386-1.342 6.364-3.534 8.94-1.658 1.948-3.848 3.011-6.285 3.576-3.866 0.896-7.764 0.921-11.651 0.146-5.787-1.154-8.763-5.066-10.080-10.5-0.272-1.121-0.343-2.313-0.35-3.472-0.037-5.956-0.080-11.913 0.019-17.867 0.022-1.355 0.588-2.702 0.922-4.048 0.047-0.189 0.192-0.359 0.315-0.521 1.714-2.246 6.344-1.774 7.389 0.827 0.457 1.136 0.748 2.418 0.766 3.638 0.080 5.517 0.044 11.036 0.030 16.554-0.004 1.723 0.391 3.342 1.049 4.925 0.729 1.755 2.022 2.797 3.88 2.989 1.204 0.124 2.454 0.129 3.648-0.052 1.553-0.236 2.703-1.162 3.387-2.624 0.853-1.824 1.325-3.722 1.318-5.747-0.016-5.284-0.047-10.57 0.026-15.853 0.017-1.225 0.35-2.466 0.679-3.661 0.412-1.492 1.554-2.216 3.044-2.369 1.702-0.175 3.286 0.053 4.35 1.617 0.815 1.197 1.144 2.531 1.137 3.973-0.015 3.212-0.005 6.423-0.005 9.635-0.012 0-0.024 0-0.036 0z"></path>
</svg>
