<!-- Generated by IcoMoon.io -->
<svg version="1.1" xmlns="http://www.w3.org/2000/svg" width="256" height="256" viewBox="0 0 256 256">
<title></title>
<g id="icomoon-ignore">
    <line stroke-width="1" x1="16" y1="0" x2="16" y2="256" stroke="#449FDB" opacity="0.3"></line>
    <line stroke-width="1" x1="32" y1="0" x2="32" y2="256" stroke="#449FDB" opacity="1"></line>
    <line stroke-width="1" x1="48" y1="0" x2="48" y2="256" stroke="#449FDB" opacity="0.3"></line>
    <line stroke-width="1" x1="64" y1="0" x2="64" y2="256" stroke="#449FDB" opacity="1"></line>
    <line stroke-width="1" x1="80" y1="0" x2="80" y2="256" stroke="#449FDB" opacity="0.3"></line>
    <line stroke-width="1" x1="96" y1="0" x2="96" y2="256" stroke="#449FDB" opacity="1"></line>
    <line stroke-width="1" x1="112" y1="0" x2="112" y2="256" stroke="#449FDB" opacity="0.3"></line>
    <line stroke-width="1" x1="128" y1="0" x2="128" y2="256" stroke="#449FDB" opacity="1"></line>
    <line stroke-width="1" x1="144" y1="0" x2="144" y2="256" stroke="#449FDB" opacity="0.3"></line>
    <line stroke-width="1" x1="160" y1="0" x2="160" y2="256" stroke="#449FDB" opacity="1"></line>
    <line stroke-width="1" x1="176" y1="0" x2="176" y2="256" stroke="#449FDB" opacity="0.3"></line>
    <line stroke-width="1" x1="192" y1="0" x2="192" y2="256" stroke="#449FDB" opacity="1"></line>
    <line stroke-width="1" x1="208" y1="0" x2="208" y2="256" stroke="#449FDB" opacity="0.3"></line>
    <line stroke-width="1" x1="224" y1="0" x2="224" y2="256" stroke="#449FDB" opacity="1"></line>
    <line stroke-width="1" x1="240" y1="0" x2="240" y2="256" stroke="#449FDB" opacity="0.3"></line>
    <line stroke-width="1" x1="0" y1="16" x2="256" y2="16" stroke="#449FDB" opacity="0.3"></line>
    <line stroke-width="1" x1="0" y1="32" x2="256" y2="32" stroke="#449FDB" opacity="1"></line>
    <line stroke-width="1" x1="0" y1="48" x2="256" y2="48" stroke="#449FDB" opacity="0.3"></line>
    <line stroke-width="1" x1="0" y1="64" x2="256" y2="64" stroke="#449FDB" opacity="1"></line>
    <line stroke-width="1" x1="0" y1="80" x2="256" y2="80" stroke="#449FDB" opacity="0.3"></line>
    <line stroke-width="1" x1="0" y1="96" x2="256" y2="96" stroke="#449FDB" opacity="1"></line>
    <line stroke-width="1" x1="0" y1="112" x2="256" y2="112" stroke="#449FDB" opacity="0.3"></line>
    <line stroke-width="1" x1="0" y1="128" x2="256" y2="128" stroke="#449FDB" opacity="1"></line>
    <line stroke-width="1" x1="0" y1="144" x2="256" y2="144" stroke="#449FDB" opacity="0.3"></line>
    <line stroke-width="1" x1="0" y1="160" x2="256" y2="160" stroke="#449FDB" opacity="1"></line>
    <line stroke-width="1" x1="0" y1="176" x2="256" y2="176" stroke="#449FDB" opacity="0.3"></line>
    <line stroke-width="1" x1="0" y1="192" x2="256" y2="192" stroke="#449FDB" opacity="1"></line>
    <line stroke-width="1" x1="0" y1="208" x2="256" y2="208" stroke="#449FDB" opacity="0.3"></line>
    <line stroke-width="1" x1="0" y1="224" x2="256" y2="224" stroke="#449FDB" opacity="1"></line>
    <line stroke-width="1" x1="0" y1="240" x2="256" y2="240" stroke="#449FDB" opacity="0.3"></line>
</g>
<path d="M128 0c70.693 0 128 57.307 128 128s-57.307 128-128 128c-70.693 0-128-57.307-128-128s57.307-128 128-128zM128 12.8c-63.624 0-115.2 51.576-115.2 115.2s51.576 115.2 115.2 115.2c63.624 0 115.2-51.576 115.2-115.2s-51.576-115.2-115.2-115.2z"></path>
<path d="M123.309 153.665c-3.552 16.013-6.802 31.826-18.832 44.735-0.35-1.318-0.654-2.157-0.791-3.022-1.925-12.112-0.497-23.966 2.58-35.772 2.455-9.418 4.466-18.947 6.576-28.447 0.242-1.090 0.052-2.368-0.274-3.464-1.969-6.614-2.463-13.24 0.451-19.658 1.092-2.406 2.806-4.724 4.772-6.534 3-2.763 6.79-3.522 10.747-1.92 3.975 1.61 5.767 4.982 5.6 8.805-0.193 4.408-1.115 8.821-2.097 13.152-1.057 4.66-2.625 9.209-3.831 13.84-1.174 4.509-0.325 8.619 3.399 11.77 3.688 3.121 7.974 3.463 12.486 1.948 4.054-1.361 7.008-4.087 9.401-7.418 4.828-6.722 7.093-14.375 7.789-22.395 0.431-4.966 0.667-10.12-0.206-14.986-2.226-12.412-11.584-20.141-25.29-21.227-27.697-2.195-41.621 21.083-37.943 40.452 0.572 3.014 2.376 5.879 3.975 8.612 0.955 1.632 1.612 3.018 0.959 4.893-0.524 1.501-0.74 3.102-1.147 4.645-0.728 2.752-2.044 3.331-4.714 2.025-5.087-2.488-8.49-6.502-10.54-11.557-4.358-10.743-4.219-21.594 0.322-32.172 7.338-17.096 20.896-26.532 39.647-29.014 12.487-1.652 24.303 0.239 34.7 7.525 11.747 8.232 17.891 19.504 18.14 33.624 0.189 10.683-1.779 20.973-6.976 30.487-5.539 10.139-13.555 17.365-25.605 19.449-9.187 1.588-17.102-0.475-23.297-8.377z"></path>
</svg>
