<!-- Generated by IcoMoon.io -->
<svg version="1.1" xmlns="http://www.w3.org/2000/svg" width="256" height="256" viewBox="0 0 256 256">
<title></title>
<g id="icomoon-ignore">
    <line stroke-width="1" x1="16" y1="0" x2="16" y2="256" stroke="#449FDB" opacity="0.3"></line>
    <line stroke-width="1" x1="32" y1="0" x2="32" y2="256" stroke="#449FDB" opacity="1"></line>
    <line stroke-width="1" x1="48" y1="0" x2="48" y2="256" stroke="#449FDB" opacity="0.3"></line>
    <line stroke-width="1" x1="64" y1="0" x2="64" y2="256" stroke="#449FDB" opacity="1"></line>
    <line stroke-width="1" x1="80" y1="0" x2="80" y2="256" stroke="#449FDB" opacity="0.3"></line>
    <line stroke-width="1" x1="96" y1="0" x2="96" y2="256" stroke="#449FDB" opacity="1"></line>
    <line stroke-width="1" x1="112" y1="0" x2="112" y2="256" stroke="#449FDB" opacity="0.3"></line>
    <line stroke-width="1" x1="128" y1="0" x2="128" y2="256" stroke="#449FDB" opacity="1"></line>
    <line stroke-width="1" x1="144" y1="0" x2="144" y2="256" stroke="#449FDB" opacity="0.3"></line>
    <line stroke-width="1" x1="160" y1="0" x2="160" y2="256" stroke="#449FDB" opacity="1"></line>
    <line stroke-width="1" x1="176" y1="0" x2="176" y2="256" stroke="#449FDB" opacity="0.3"></line>
    <line stroke-width="1" x1="192" y1="0" x2="192" y2="256" stroke="#449FDB" opacity="1"></line>
    <line stroke-width="1" x1="208" y1="0" x2="208" y2="256" stroke="#449FDB" opacity="0.3"></line>
    <line stroke-width="1" x1="224" y1="0" x2="224" y2="256" stroke="#449FDB" opacity="1"></line>
    <line stroke-width="1" x1="240" y1="0" x2="240" y2="256" stroke="#449FDB" opacity="0.3"></line>
    <line stroke-width="1" x1="0" y1="16" x2="256" y2="16" stroke="#449FDB" opacity="0.3"></line>
    <line stroke-width="1" x1="0" y1="32" x2="256" y2="32" stroke="#449FDB" opacity="1"></line>
    <line stroke-width="1" x1="0" y1="48" x2="256" y2="48" stroke="#449FDB" opacity="0.3"></line>
    <line stroke-width="1" x1="0" y1="64" x2="256" y2="64" stroke="#449FDB" opacity="1"></line>
    <line stroke-width="1" x1="0" y1="80" x2="256" y2="80" stroke="#449FDB" opacity="0.3"></line>
    <line stroke-width="1" x1="0" y1="96" x2="256" y2="96" stroke="#449FDB" opacity="1"></line>
    <line stroke-width="1" x1="0" y1="112" x2="256" y2="112" stroke="#449FDB" opacity="0.3"></line>
    <line stroke-width="1" x1="0" y1="128" x2="256" y2="128" stroke="#449FDB" opacity="1"></line>
    <line stroke-width="1" x1="0" y1="144" x2="256" y2="144" stroke="#449FDB" opacity="0.3"></line>
    <line stroke-width="1" x1="0" y1="160" x2="256" y2="160" stroke="#449FDB" opacity="1"></line>
    <line stroke-width="1" x1="0" y1="176" x2="256" y2="176" stroke="#449FDB" opacity="0.3"></line>
    <line stroke-width="1" x1="0" y1="192" x2="256" y2="192" stroke="#449FDB" opacity="1"></line>
    <line stroke-width="1" x1="0" y1="208" x2="256" y2="208" stroke="#449FDB" opacity="0.3"></line>
    <line stroke-width="1" x1="0" y1="224" x2="256" y2="224" stroke="#449FDB" opacity="1"></line>
    <line stroke-width="1" x1="0" y1="240" x2="256" y2="240" stroke="#449FDB" opacity="0.3"></line>
</g>
<path d="M128 0c70.693 0 128 57.307 128 128s-57.307 128-128 128c-70.693 0-128-57.307-128-128s57.307-128 128-128zM128 12.8c-63.624 0-115.2 51.576-115.2 115.2s51.576 115.2 115.2 115.2c63.624 0 115.2-51.576 115.2-115.2s-51.576-115.2-115.2-115.2z"></path>
<path d="M147.355 85.359c-0.017-4.504-3.892-8.192-8.6-8.186-4.697 0.006-8.591 3.709-8.615 8.192-0.024 4.512 3.953 8.288 8.68 8.241 4.736-0.047 8.552-3.734 8.536-8.246zM89.228 85.394c0.006 4.492 3.87 8.185 8.589 8.21 4.687 0.025 8.598-3.669 8.64-8.162 0.043-4.519-3.903-8.291-8.648-8.269-4.71 0.022-8.587 3.736-8.581 8.22zM65.286 159.906c0.28-2.579 0.535-4.938 0.793-7.296 0.615-5.605 1.217-11.21 1.867-16.812 0.11-0.947-0.143-1.671-0.746-2.419-4.556-5.662-7.605-11.999-8.89-19.029-1.78-9.736-0.22-19.004 4.763-27.701 6.524-11.386 16.483-19.019 28.895-23.941 10.412-4.129 21.292-5.526 32.468-4.635 11.707 0.933 22.572 4.395 32.248 10.831 9.629 6.405 16.733 14.731 20.322 25.533 1.579 4.752 2.269 9.633 1.858 14.802-0.554-0.163-1.037-0.295-1.513-0.445-9.342-2.953-18.87-3.65-28.559-2.036-11.284 1.88-21.172 6.468-29.178 14.349-7.541 7.423-11.698 16.325-11.823 26.759-0.025 2.056 0.367 4.117 0.572 6.175 0.037 0.374 0.105 0.745 0.19 1.337-2.014-0.347-3.938-0.506-5.749-1.024-4.223-1.207-8.384-2.611-12.592-3.87-0.615-0.184-1.434-0.214-2.009 0.020-7.203 2.928-14.379 5.919-21.563 8.891-0.361 0.149-0.732 0.278-1.354 0.512z"></path>
<path d="M138.556 136.046c0.032 3.427 2.878 6.171 6.361 6.133 3.5-0.037 6.3-2.82 6.27-6.231s-2.894-6.171-6.369-6.134c-3.494 0.037-6.295 2.824-6.262 6.231zM168.619 136.036c0.030 3.384 2.931 6.173 6.388 6.141 3.475-0.032 6.348-2.863 6.312-6.218-0.036-3.385-2.932-6.168-6.392-6.144-3.468 0.024-6.338 2.855-6.308 6.222zM198.85 192c-2.061-0.863-3.987-1.666-5.91-2.475-3.62-1.524-7.23-3.070-10.868-4.552-0.437-0.178-1.086-0.174-1.523 0.007-12.376 5.126-24.965 5.542-37.642 1.342-9.212-3.052-16.805-8.395-22.161-16.424-3.867-5.797-5.749-12.185-5.388-19.159 0.477-9.194 4.472-16.761 11.21-23.024 7.691-7.149 16.992-10.945 27.472-12.080 10.661-1.155 20.8 0.573 30.229 5.652 8.416 4.533 14.822 10.94 18.203 19.824 3.256 8.555 2.773 17.051-1.369 25.26-0.993 1.969-2.386 3.744-3.521 5.649-0.325 0.545-0.6 1.256-0.543 1.858 0.541 5.725 1.158 11.444 1.751 17.164 0.026 0.254 0.031 0.509 0.057 0.958z"></path>
</svg>
