<!-- Generated by IcoMoon.io -->
<svg version="1.1" xmlns="http://www.w3.org/2000/svg" width="256" height="256" viewBox="0 0 256 256">
<title></title>
<g id="icomoon-ignore">
    <line stroke-width="1" x1="16" y1="0" x2="16" y2="256" stroke="#449FDB" opacity="0.3"></line>
    <line stroke-width="1" x1="32" y1="0" x2="32" y2="256" stroke="#449FDB" opacity="1"></line>
    <line stroke-width="1" x1="48" y1="0" x2="48" y2="256" stroke="#449FDB" opacity="0.3"></line>
    <line stroke-width="1" x1="64" y1="0" x2="64" y2="256" stroke="#449FDB" opacity="1"></line>
    <line stroke-width="1" x1="80" y1="0" x2="80" y2="256" stroke="#449FDB" opacity="0.3"></line>
    <line stroke-width="1" x1="96" y1="0" x2="96" y2="256" stroke="#449FDB" opacity="1"></line>
    <line stroke-width="1" x1="112" y1="0" x2="112" y2="256" stroke="#449FDB" opacity="0.3"></line>
    <line stroke-width="1" x1="128" y1="0" x2="128" y2="256" stroke="#449FDB" opacity="1"></line>
    <line stroke-width="1" x1="144" y1="0" x2="144" y2="256" stroke="#449FDB" opacity="0.3"></line>
    <line stroke-width="1" x1="160" y1="0" x2="160" y2="256" stroke="#449FDB" opacity="1"></line>
    <line stroke-width="1" x1="176" y1="0" x2="176" y2="256" stroke="#449FDB" opacity="0.3"></line>
    <line stroke-width="1" x1="192" y1="0" x2="192" y2="256" stroke="#449FDB" opacity="1"></line>
    <line stroke-width="1" x1="208" y1="0" x2="208" y2="256" stroke="#449FDB" opacity="0.3"></line>
    <line stroke-width="1" x1="224" y1="0" x2="224" y2="256" stroke="#449FDB" opacity="1"></line>
    <line stroke-width="1" x1="240" y1="0" x2="240" y2="256" stroke="#449FDB" opacity="0.3"></line>
    <line stroke-width="1" x1="0" y1="16" x2="256" y2="16" stroke="#449FDB" opacity="0.3"></line>
    <line stroke-width="1" x1="0" y1="32" x2="256" y2="32" stroke="#449FDB" opacity="1"></line>
    <line stroke-width="1" x1="0" y1="48" x2="256" y2="48" stroke="#449FDB" opacity="0.3"></line>
    <line stroke-width="1" x1="0" y1="64" x2="256" y2="64" stroke="#449FDB" opacity="1"></line>
    <line stroke-width="1" x1="0" y1="80" x2="256" y2="80" stroke="#449FDB" opacity="0.3"></line>
    <line stroke-width="1" x1="0" y1="96" x2="256" y2="96" stroke="#449FDB" opacity="1"></line>
    <line stroke-width="1" x1="0" y1="112" x2="256" y2="112" stroke="#449FDB" opacity="0.3"></line>
    <line stroke-width="1" x1="0" y1="128" x2="256" y2="128" stroke="#449FDB" opacity="1"></line>
    <line stroke-width="1" x1="0" y1="144" x2="256" y2="144" stroke="#449FDB" opacity="0.3"></line>
    <line stroke-width="1" x1="0" y1="160" x2="256" y2="160" stroke="#449FDB" opacity="1"></line>
    <line stroke-width="1" x1="0" y1="176" x2="256" y2="176" stroke="#449FDB" opacity="0.3"></line>
    <line stroke-width="1" x1="0" y1="192" x2="256" y2="192" stroke="#449FDB" opacity="1"></line>
    <line stroke-width="1" x1="0" y1="208" x2="256" y2="208" stroke="#449FDB" opacity="0.3"></line>
    <line stroke-width="1" x1="0" y1="224" x2="256" y2="224" stroke="#449FDB" opacity="1"></line>
    <line stroke-width="1" x1="0" y1="240" x2="256" y2="240" stroke="#449FDB" opacity="0.3"></line>
</g>
<path d="M128 0c70.693 0 128 57.307 128 128s-57.307 128-128 128c-70.693 0-128-57.307-128-128s57.307-128 128-128zM128 12.8c-63.624 0-115.2 51.576-115.2 115.2s51.576 115.2 115.2 115.2c63.624 0 115.2-51.576 115.2-115.2s-51.576-115.2-115.2-115.2z"></path>
<path d="M51.2 142.453c1.135-3.807 1.928-7.76 3.467-11.394 5.269-12.442 13.937-22.359 23.876-31.219 8.261-7.364 17.35-13.448 28.246-16.033 3.196-0.758 6.813-0.805 10.028-0.145 4.46 0.915 7.099 4.363 7.286 8.938 0.135 3.281-0.496 6.628-1.067 9.895-0.495 2.826 0.057 3.547 2.831 2.671 3.447-1.088 6.804-2.482 10.281-3.451 4.619-1.287 9.334-2.016 14.165-1.258 8.32 1.306 12.087 6.993 10.024 15.244-0.387 1.549-0.888 3.071-1.387 4.588-0.513 1.559 0.020 2.467 1.541 3 1.91 0.669 3.829 1.35 5.659 2.209 12.791 6.003 16.633 18.427 9.502 30.691-5.419 9.32-13.591 15.625-22.969 20.344-16.911 8.51-34.869 10.64-53.471 8.007-10.709-1.516-20.92-4.634-30.178-10.359-9.023-5.58-15.724-13.001-17.597-23.948-0.022-0.129-0.156-0.238-0.237-0.356 0-2.475 0-4.949 0-7.423zM112.38 118.38c-2.040 0.204-5.659 0.398-9.224 0.95-11.9 1.841-22.498 6.408-30.835 15.451-9.095 9.865-8.515 22.996 1.574 31.823 2.475 2.165 5.362 3.993 8.319 5.436 9.348 4.562 19.342 5.791 29.6 4.918 12.483-1.062 23.93-4.865 33.37-13.529 6.327-5.807 10.11-12.73 8.559-21.665-1.246-7.178-5.767-12.1-11.639-15.829-8.574-5.443-18.148-7.338-29.724-7.556z"></path>
<path d="M198.4 109.207c-0.544 2.422-0.992 4.875-1.655 7.26-1.113 4.002-3.857 5.841-7.034 4.885-3.247-0.977-4.708-4.226-3.701-8.228 3.572-14.189-1.938-27.692-14.113-34.248-4.921-2.65-10.206-3.54-15.708-2.743-0.784 0.114-1.568 0.224-2.353 0.322-3.44 0.428-6.064-1.569-6.567-4.992-0.459-3.125 1.435-5.899 4.656-6.573 10.757-2.253 20.797-0.261 29.789 6.384 9.034 6.676 14.453 15.916 16.2 27.499 0.112 0.742 0.322 1.468 0.487 2.201 0 2.744 0 5.489 0 8.233z"></path>
<path d="M154.753 83.2c11.887 0.082 20.673 11.173 17.33 21.947-0.822 2.649-3.112 4.091-5.615 3.535-2.638-0.586-4.185-2.887-3.276-5.67 2.123-6.503-4.683-12.268-10.415-10.85-2.84 0.703-5.2-1.060-5.523-3.484-0.368-2.754 1.148-4.609 4.196-5.085 1.094-0.171 2.202-0.265 3.303-0.394z"></path>
<path d="M107.008 172.8c-8.555-0.595-15.977-2.879-20.756-10.301-5.037-7.823-3.747-17.581 3.185-25.228 7.999-8.825 22.045-11.799 32.888-6.964 11.761 5.245 15.631 18.49 8.481 29.595-5.597 8.692-14.136 12.119-23.797 12.898zM99.666 162.762c5.224-0.027 9.992-4.28 10.010-8.928 0.016-4.135-3.45-7.345-7.819-7.243-5.175 0.121-9.927 4.503-9.892 9.121 0.031 4.066 3.316 7.072 7.701 7.049zM112.556 148.936c2.826 0.057 4.669-1.438 4.697-3.197 0.028-1.825-1.015-2.765-2.804-2.842-1.931-0.083-4.066 1.684-3.729 3.463 0.209 1.106 1.418 2.023 1.837 2.576z"></path>
</svg>
