<!-- Generated by IcoMoon.io -->
<svg version="1.1" xmlns="http://www.w3.org/2000/svg" width="256" height="256" viewBox="0 0 256 256">
<title></title>
<g id="icomoon-ignore">
    <line stroke-width="1" x1="16" y1="0" x2="16" y2="256" stroke="#449FDB" opacity="0.3"></line>
    <line stroke-width="1" x1="32" y1="0" x2="32" y2="256" stroke="#449FDB" opacity="1"></line>
    <line stroke-width="1" x1="48" y1="0" x2="48" y2="256" stroke="#449FDB" opacity="0.3"></line>
    <line stroke-width="1" x1="64" y1="0" x2="64" y2="256" stroke="#449FDB" opacity="1"></line>
    <line stroke-width="1" x1="80" y1="0" x2="80" y2="256" stroke="#449FDB" opacity="0.3"></line>
    <line stroke-width="1" x1="96" y1="0" x2="96" y2="256" stroke="#449FDB" opacity="1"></line>
    <line stroke-width="1" x1="112" y1="0" x2="112" y2="256" stroke="#449FDB" opacity="0.3"></line>
    <line stroke-width="1" x1="128" y1="0" x2="128" y2="256" stroke="#449FDB" opacity="1"></line>
    <line stroke-width="1" x1="144" y1="0" x2="144" y2="256" stroke="#449FDB" opacity="0.3"></line>
    <line stroke-width="1" x1="160" y1="0" x2="160" y2="256" stroke="#449FDB" opacity="1"></line>
    <line stroke-width="1" x1="176" y1="0" x2="176" y2="256" stroke="#449FDB" opacity="0.3"></line>
    <line stroke-width="1" x1="192" y1="0" x2="192" y2="256" stroke="#449FDB" opacity="1"></line>
    <line stroke-width="1" x1="208" y1="0" x2="208" y2="256" stroke="#449FDB" opacity="0.3"></line>
    <line stroke-width="1" x1="224" y1="0" x2="224" y2="256" stroke="#449FDB" opacity="1"></line>
    <line stroke-width="1" x1="240" y1="0" x2="240" y2="256" stroke="#449FDB" opacity="0.3"></line>
    <line stroke-width="1" x1="0" y1="16" x2="256" y2="16" stroke="#449FDB" opacity="0.3"></line>
    <line stroke-width="1" x1="0" y1="32" x2="256" y2="32" stroke="#449FDB" opacity="1"></line>
    <line stroke-width="1" x1="0" y1="48" x2="256" y2="48" stroke="#449FDB" opacity="0.3"></line>
    <line stroke-width="1" x1="0" y1="64" x2="256" y2="64" stroke="#449FDB" opacity="1"></line>
    <line stroke-width="1" x1="0" y1="80" x2="256" y2="80" stroke="#449FDB" opacity="0.3"></line>
    <line stroke-width="1" x1="0" y1="96" x2="256" y2="96" stroke="#449FDB" opacity="1"></line>
    <line stroke-width="1" x1="0" y1="112" x2="256" y2="112" stroke="#449FDB" opacity="0.3"></line>
    <line stroke-width="1" x1="0" y1="128" x2="256" y2="128" stroke="#449FDB" opacity="1"></line>
    <line stroke-width="1" x1="0" y1="144" x2="256" y2="144" stroke="#449FDB" opacity="0.3"></line>
    <line stroke-width="1" x1="0" y1="160" x2="256" y2="160" stroke="#449FDB" opacity="1"></line>
    <line stroke-width="1" x1="0" y1="176" x2="256" y2="176" stroke="#449FDB" opacity="0.3"></line>
    <line stroke-width="1" x1="0" y1="192" x2="256" y2="192" stroke="#449FDB" opacity="1"></line>
    <line stroke-width="1" x1="0" y1="208" x2="256" y2="208" stroke="#449FDB" opacity="0.3"></line>
    <line stroke-width="1" x1="0" y1="224" x2="256" y2="224" stroke="#449FDB" opacity="1"></line>
    <line stroke-width="1" x1="0" y1="240" x2="256" y2="240" stroke="#449FDB" opacity="0.3"></line>
</g>
<path d="M128 0c70.693 0 128 57.307 128 128s-57.307 128-128 128c-70.693 0-128-57.307-128-128s57.307-128 128-128zM128 12.8c-63.624 0-115.2 51.576-115.2 115.2s51.576 115.2 115.2 115.2c63.624 0 115.2-51.576 115.2-115.2s-51.576-115.2-115.2-115.2z"></path>
<path d="M57.6 101.499c0.765-1.236 1.901-1.828 3.328-1.911 0.69-0.040 1.38-0.103 2.069-0.108 5.618-0.035 11.237-0.056 16.855-0.087 2.888-0.016 4.786 1.261 6.069 3.936 3.356 6.999 6.835 13.942 10.407 20.834 1.491 2.877 3.41 5.52 5.995 7.572 0.6 0.476 1.279 0.903 1.99 1.18 1.6 0.625 2.813 0.096 3.647-1.393 1.246-2.225 1.343-4.706 1.627-7.142 0.659-5.655 0.577-11.279-0.572-16.886-0.686-3.352-2.716-5.15-5.958-5.814-1.653-0.339-1.764-0.763-0.599-2.022 1.366-1.477 3.034-2.45 5.019-2.746 7.477-1.117 14.97-1.276 22.454-0.102 3.696 0.58 5.090 1.856 5.421 6.219 0.254 3.347-0.024 6.735-0.062 10.104-0.051 4.493-0.158 8.987-0.111 13.48 0.014 1.31 0.302 2.679 0.763 3.91 0.991 2.642 3.023 3.029 5.163 1.255 3.496-2.897 5.829-6.69 8.23-10.433 3.646-5.686 6.617-11.718 9.135-17.98 1.341-3.335 1.939-3.689 5.48-3.716 6.958-0.053 13.915-0.167 20.872-0.207 1.063-0.006 2.168 0.118 3.184 0.418 1.984 0.585 2.605 1.708 2.25 3.737-0.548 3.13-1.996 5.915-3.769 8.455-4.522 6.479-9.221 12.832-13.835 19.247-1.033 1.436-2.096 2.863-2.981 4.39-1.512 2.607-1.275 4.936 0.828 7.104 3.038 3.131 6.222 6.119 9.303 9.209 3.36 3.371 6.571 6.876 9.011 10.999 0.498 0.841 0.905 1.769 1.168 2.71 0.935 3.353-0.687 5.165-3.943 5.489-2.916 0.29-5.867 0.233-8.803 0.308-3.801 0.097-7.603 0.234-11.405 0.238-3.231 0.003-6.167-1.171-8.549-3.24-2.63-2.285-4.955-4.921-7.407-7.41-1.786-1.813-3.543-3.655-5.357-5.439-0.483-0.475-1.099-0.845-1.708-1.158-1.605-0.824-2.785-0.642-4.136 0.578-2.355 2.126-2.918 5.007-3.275 7.95-0.155 1.284-0.143 2.588-0.227 3.881-0.172 2.638-1.43 4.141-4.046 4.353-11.406 0.929-22.216-0.428-32.016-7.204-6.517-4.506-11.799-10.030-16.495-16.297-10.031-13.386-17.76-28.057-24.487-43.303-0.169-0.384-0.35-0.763-0.526-1.144 0-0.605 0-1.21 0-1.815z"></path>
</svg>
