<!-- Generated by IcoMoon.io -->
<svg version="1.1" xmlns="http://www.w3.org/2000/svg" width="256" height="256" viewBox="0 0 256 256">
<title></title>
<g id="icomoon-ignore">
    <line stroke-width="1" x1="16" y1="0" x2="16" y2="256" stroke="#449FDB" opacity="0.3"></line>
    <line stroke-width="1" x1="32" y1="0" x2="32" y2="256" stroke="#449FDB" opacity="1"></line>
    <line stroke-width="1" x1="48" y1="0" x2="48" y2="256" stroke="#449FDB" opacity="0.3"></line>
    <line stroke-width="1" x1="64" y1="0" x2="64" y2="256" stroke="#449FDB" opacity="1"></line>
    <line stroke-width="1" x1="80" y1="0" x2="80" y2="256" stroke="#449FDB" opacity="0.3"></line>
    <line stroke-width="1" x1="96" y1="0" x2="96" y2="256" stroke="#449FDB" opacity="1"></line>
    <line stroke-width="1" x1="112" y1="0" x2="112" y2="256" stroke="#449FDB" opacity="0.3"></line>
    <line stroke-width="1" x1="128" y1="0" x2="128" y2="256" stroke="#449FDB" opacity="1"></line>
    <line stroke-width="1" x1="144" y1="0" x2="144" y2="256" stroke="#449FDB" opacity="0.3"></line>
    <line stroke-width="1" x1="160" y1="0" x2="160" y2="256" stroke="#449FDB" opacity="1"></line>
    <line stroke-width="1" x1="176" y1="0" x2="176" y2="256" stroke="#449FDB" opacity="0.3"></line>
    <line stroke-width="1" x1="192" y1="0" x2="192" y2="256" stroke="#449FDB" opacity="1"></line>
    <line stroke-width="1" x1="208" y1="0" x2="208" y2="256" stroke="#449FDB" opacity="0.3"></line>
    <line stroke-width="1" x1="224" y1="0" x2="224" y2="256" stroke="#449FDB" opacity="1"></line>
    <line stroke-width="1" x1="240" y1="0" x2="240" y2="256" stroke="#449FDB" opacity="0.3"></line>
    <line stroke-width="1" x1="0" y1="16" x2="256" y2="16" stroke="#449FDB" opacity="0.3"></line>
    <line stroke-width="1" x1="0" y1="32" x2="256" y2="32" stroke="#449FDB" opacity="1"></line>
    <line stroke-width="1" x1="0" y1="48" x2="256" y2="48" stroke="#449FDB" opacity="0.3"></line>
    <line stroke-width="1" x1="0" y1="64" x2="256" y2="64" stroke="#449FDB" opacity="1"></line>
    <line stroke-width="1" x1="0" y1="80" x2="256" y2="80" stroke="#449FDB" opacity="0.3"></line>
    <line stroke-width="1" x1="0" y1="96" x2="256" y2="96" stroke="#449FDB" opacity="1"></line>
    <line stroke-width="1" x1="0" y1="112" x2="256" y2="112" stroke="#449FDB" opacity="0.3"></line>
    <line stroke-width="1" x1="0" y1="128" x2="256" y2="128" stroke="#449FDB" opacity="1"></line>
    <line stroke-width="1" x1="0" y1="144" x2="256" y2="144" stroke="#449FDB" opacity="0.3"></line>
    <line stroke-width="1" x1="0" y1="160" x2="256" y2="160" stroke="#449FDB" opacity="1"></line>
    <line stroke-width="1" x1="0" y1="176" x2="256" y2="176" stroke="#449FDB" opacity="0.3"></line>
    <line stroke-width="1" x1="0" y1="192" x2="256" y2="192" stroke="#449FDB" opacity="1"></line>
    <line stroke-width="1" x1="0" y1="208" x2="256" y2="208" stroke="#449FDB" opacity="0.3"></line>
    <line stroke-width="1" x1="0" y1="224" x2="256" y2="224" stroke="#449FDB" opacity="1"></line>
    <line stroke-width="1" x1="0" y1="240" x2="256" y2="240" stroke="#449FDB" opacity="0.3"></line>
</g>
<path d="M165.389 69.792h-25.846c-2.227-14.257-5.335-26.811-9.312-36.239-1.114-2.648-2.304-5.032-3.56-7.156 6.047 2.257 11.763 5.891 17.022 10.739 8.686 8.005 16.137 19.192 21.696 32.656v0zM176.15 124.008h-32.452c-0.142-15.853-1.149-31.649-2.995-46.084h27.713c4.628 13.769 7.349 29.444 7.736 46.084v0zM168.359 178.224h-27.677c1.856-14.429 2.869-30.226 3.016-46.084h32.447c-0.402 16.645-3.138 32.315-7.786 46.084v0zM104.33 223.744c-3.906-7.72-7.72-20.483-10.522-37.388h37.375c-2.802 16.905-6.617 29.667-10.522 37.388-2.797 5.525-5.635 8.549-8.168 8.549-2.528 0-5.365-3.024-8.162-8.549v0zM81.296 37.136c5.259-4.849 10.975-8.483 17.022-10.739-1.256 2.125-2.447 4.508-3.565 7.156-3.972 9.428-7.079 21.982-9.307 36.239h-25.846c5.559-13.464 13.009-24.651 21.696-32.656v0zM56.575 77.924h27.713c-1.846 14.434-2.853 30.231-3.001 46.084h-32.447c0.386-16.641 3.108-32.315 7.736-46.084v0zM48.839 132.14h32.452c0.147 15.858 1.159 31.655 3.011 46.084h-27.672c-4.648-13.769-7.385-29.438-7.791-46.084v0zM98.318 229.604c-6.047-2.257-11.763-5.891-17.022-10.734-8.656-7.98-16.081-19.115-21.635-32.513h25.805c2.228 14.196 5.33 26.699 9.287 36.091 1.119 2.653 2.309 5.032 3.565 7.156v0zM132.403 178.224h-39.822c-1.805-13.337-2.96-28.823-3.128-46.084h46.082c-0.168 17.261-1.322 32.747-3.133 46.084v0zM143.693 218.87c-5.259 4.844-10.975 8.478-17.022 10.734 1.256-2.125 2.447-4.503 3.56-7.156 3.962-9.393 7.064-21.896 9.292-36.091h25.805c-5.554 13.398-12.979 24.534-21.635 32.513v0zM135.536 124.008h-46.082c0.158-17.26 1.307-32.742 3.112-46.084h39.857c1.8 13.342 2.955 28.823 3.113 46.084v0zM120.66 32.257c3.916 7.746 7.74 20.559 10.543 37.535h-37.421c2.807-16.976 6.627-29.789 10.548-37.535 2.797-5.525 5.635-8.544 8.162-8.544 2.533 0 5.37 3.019 8.168 8.544v0zM77.436 29.893c-4.862 4.264-9.378 9.367-13.462 15.212-5.035 7.212-9.419 15.517-12.984 24.686h-25.043c12.348-18.277 30.382-32.335 51.488-39.898v0zM21 77.924h27.133c-4.465 13.967-7.12 29.576-7.491 46.084h-32.3c0.631-16.641 5.081-32.315 12.658-46.084v0zM8.346 132.14h32.3c0.386 16.513 3.056 32.117 7.537 46.084h-27.097c-7.603-13.769-12.079-29.438-12.74-46.084v0zM26.050 186.356h24.996c3.555 9.113 7.919 17.372 12.928 24.544 4.084 5.845 8.6 10.948 13.462 15.207-21.050-7.537-39.043-21.545-51.386-39.751v0zM188.794 186.356h10.146c-12.343 18.206-30.337 32.214-51.392 39.751 4.862-4.259 9.383-9.362 13.462-15.207 5.014-7.172 9.373-15.431 12.928-24.544h14.856zM215.041 146.935c-2.055 11.146-5.833 21.683-11.143 31.288h-27.092c4.481-13.967 7.15-29.571 7.537-46.084h23.125c-1.195-2.379-2.548-5.103-4.028-8.132h-19.097c-0.371-16.508-3.026-32.117-7.491-46.084h6.55c-1.007-2.826-1.892-5.535-2.67-8.132h-6.733c-3.565-9.169-7.949-17.474-12.984-24.686-4.084-5.845-8.6-10.948-13.462-15.212 11.26 4.035 21.665 9.86 30.769 17.276 0.249-1.494 0.565-2.968 0.961-4.407 0.387-1.408 0.839-2.78 1.363-4.122-18.929-14.45-42.547-23.060-68.154-23.060-62.026 0-112.492 50.429-112.492 112.417s50.466 112.422 112.492 112.422c40.661 0 76.353-21.672 96.116-54.064h0.234v-0.392c5.182-8.574 9.231-17.901 11.987-27.761l-5.787-11.268zM224.301 115.704c-1.185 2.455-2.329 4.798-3.382 6.922-0.097-0.193-0.203-0.417-0.305-0.615-1.607-3.253-3.387-6.927-5.249-10.852-4.948-10.414-10.416-22.547-14.601-33.24-1.108-2.836-2.121-5.561-3.011-8.127-0.371-1.078-0.738-2.14-1.063-3.151-1.21-3.771-2.075-7.075-2.466-9.698-0.153-1.022-0.249-1.957-0.249-2.76 0-1.103 0.198-2.155 0.325-3.227 0.387-3.172 1.297-6.15 2.69-8.889 4.46-8.742 13.457-14.806 23.928-14.806 14.856 0 26.944 12.081 26.944 26.923 0 8.361-8.803 29.723-17.434 48.503-2.101 4.574-4.18 8.976-6.129 13.017zM220.918 19.13c-12.832 0-24.046 6.943-30.159 17.245-1.439 2.425-2.614 5.022-3.438 7.776-0.447 1.504-0.773 3.055-1.022 4.63-0.26 1.688-0.432 3.395-0.447 5.149 0 0.086-0.010 0.168-0.010 0.254 0 3.751 1.327 9.266 3.372 15.609 0.082 0.244 0.163 0.493 0.244 0.742 0.778 2.373 1.637 4.829 2.594 7.385 4.404 11.781 10.38 25.032 15.471 35.751 1.831 3.853 3.53 7.35 4.999 10.338 1.77 3.588 3.189 6.409 4.069 8.127 0.015 0.041 0.030 0.061 0.046 0.096 0.254 0.498 0.513 1.001 0.661 1.296l3.011 5.865 0.61 1.184 3.621-7.049c0.071-0.142 0.224-0.442 0.32-0.636 1.185-2.313 4.104-8.082 7.761-15.675 9.409-19.547 23.379-50.648 23.379-63.035 0-19.329-15.735-35.054-35.082-35.054zM220.919 62.798c-4.979 0-9.037-4.056-9.037-9.032 0-4.981 4.058-9.037 9.037-9.037s9.037 4.056 9.037 9.037c0 4.976-4.058 9.032-9.037 9.032zM220.919 36.602c-8.117 0-14.901 5.672-16.681 13.25-0.3 1.261-0.494 2.562-0.494 3.914 0 8.671 6.489 15.786 14.856 16.93 0.768 0.102 1.526 0.234 2.319 0.234 9.47 0 17.174-7.7 17.174-17.164 0-9.469-7.705-17.164-17.174-17.164z"></path>
</svg>
