<!-- Generated by IcoMoon.io -->
<svg version="1.1" xmlns="http://www.w3.org/2000/svg" width="256" height="256" viewBox="0 0 256 256">
<title></title>
<g id="icomoon-ignore">
    <line stroke-width="1" x1="16" y1="0" x2="16" y2="256" stroke="#449FDB" opacity="0.3"></line>
    <line stroke-width="1" x1="32" y1="0" x2="32" y2="256" stroke="#449FDB" opacity="1"></line>
    <line stroke-width="1" x1="48" y1="0" x2="48" y2="256" stroke="#449FDB" opacity="0.3"></line>
    <line stroke-width="1" x1="64" y1="0" x2="64" y2="256" stroke="#449FDB" opacity="1"></line>
    <line stroke-width="1" x1="80" y1="0" x2="80" y2="256" stroke="#449FDB" opacity="0.3"></line>
    <line stroke-width="1" x1="96" y1="0" x2="96" y2="256" stroke="#449FDB" opacity="1"></line>
    <line stroke-width="1" x1="112" y1="0" x2="112" y2="256" stroke="#449FDB" opacity="0.3"></line>
    <line stroke-width="1" x1="128" y1="0" x2="128" y2="256" stroke="#449FDB" opacity="1"></line>
    <line stroke-width="1" x1="144" y1="0" x2="144" y2="256" stroke="#449FDB" opacity="0.3"></line>
    <line stroke-width="1" x1="160" y1="0" x2="160" y2="256" stroke="#449FDB" opacity="1"></line>
    <line stroke-width="1" x1="176" y1="0" x2="176" y2="256" stroke="#449FDB" opacity="0.3"></line>
    <line stroke-width="1" x1="192" y1="0" x2="192" y2="256" stroke="#449FDB" opacity="1"></line>
    <line stroke-width="1" x1="208" y1="0" x2="208" y2="256" stroke="#449FDB" opacity="0.3"></line>
    <line stroke-width="1" x1="224" y1="0" x2="224" y2="256" stroke="#449FDB" opacity="1"></line>
    <line stroke-width="1" x1="240" y1="0" x2="240" y2="256" stroke="#449FDB" opacity="0.3"></line>
    <line stroke-width="1" x1="0" y1="16" x2="256" y2="16" stroke="#449FDB" opacity="0.3"></line>
    <line stroke-width="1" x1="0" y1="32" x2="256" y2="32" stroke="#449FDB" opacity="1"></line>
    <line stroke-width="1" x1="0" y1="48" x2="256" y2="48" stroke="#449FDB" opacity="0.3"></line>
    <line stroke-width="1" x1="0" y1="64" x2="256" y2="64" stroke="#449FDB" opacity="1"></line>
    <line stroke-width="1" x1="0" y1="80" x2="256" y2="80" stroke="#449FDB" opacity="0.3"></line>
    <line stroke-width="1" x1="0" y1="96" x2="256" y2="96" stroke="#449FDB" opacity="1"></line>
    <line stroke-width="1" x1="0" y1="112" x2="256" y2="112" stroke="#449FDB" opacity="0.3"></line>
    <line stroke-width="1" x1="0" y1="128" x2="256" y2="128" stroke="#449FDB" opacity="1"></line>
    <line stroke-width="1" x1="0" y1="144" x2="256" y2="144" stroke="#449FDB" opacity="0.3"></line>
    <line stroke-width="1" x1="0" y1="160" x2="256" y2="160" stroke="#449FDB" opacity="1"></line>
    <line stroke-width="1" x1="0" y1="176" x2="256" y2="176" stroke="#449FDB" opacity="0.3"></line>
    <line stroke-width="1" x1="0" y1="192" x2="256" y2="192" stroke="#449FDB" opacity="1"></line>
    <line stroke-width="1" x1="0" y1="208" x2="256" y2="208" stroke="#449FDB" opacity="0.3"></line>
    <line stroke-width="1" x1="0" y1="224" x2="256" y2="224" stroke="#449FDB" opacity="1"></line>
    <line stroke-width="1" x1="0" y1="240" x2="256" y2="240" stroke="#449FDB" opacity="0.3"></line>
</g>
<path d="M116.338 50.223c0 6.46 5.251 11.721 11.706 11.721 6.462 0 11.713-5.261 11.713-11.721s-5.251-11.721-11.713-11.721c-6.455 0-11.706 5.261-11.706 11.721v0zM106.3 50.223c0-12.003 9.755-21.759 21.744-21.759 11.995 0 21.75 9.756 21.75 21.759s-9.755 21.765-21.75 21.765c-11.989 0-21.743-9.762-21.743-21.766v0zM92.919 50.223c0 19.386 15.752 35.163 35.125 35.163s35.137-15.776 35.137-35.163c0-19.386-15.765-35.156-35.137-35.156s-35.125 15.77-35.125 35.156v0zM83.177 55.245h-5.32v-10.045h5.32c0.514-4.602 1.719-8.99 3.507-13.070l-4.611-2.668 5.025-8.701 4.648 2.687c2.691-3.648 5.903-6.862 9.548-9.555l-2.685-4.652 8.689-5.029 2.666 4.62c4.078-1.796 8.463-3.001 13.061-3.515v-5.317h10.037v5.317c4.599 0.515 8.983 1.72 13.067 3.515l2.66-4.614 8.701 5.022-2.691 4.652c3.645 2.693 6.863 5.907 9.554 9.555l4.649-2.687 5.019 8.701-4.611 2.668c1.788 4.081 2.999 8.469 3.507 13.071h5.314v10.045h-5.314c-0.508 4.602-1.719 8.99-3.507 13.077l4.605 2.662-5.012 8.701-4.649-2.687c-2.691 3.647-5.91 6.868-9.554 9.561l2.685 4.646-8.689 5.022-2.66-4.614c-4.084 1.796-8.475 3.007-13.074 3.516v5.317h-10.037v-5.317c-4.599-0.508-8.983-1.72-13.061-3.516l-2.666 4.621-8.689-5.028 2.685-4.646c-3.645-2.693-6.863-5.914-9.554-9.561l-4.642 2.687-5.025-8.701 4.611-2.662c-1.788-4.087-2.993-8.475-3.507-13.077v0zM239.359 205.544l-8.601 5.167-54.554-90.986c-0.125-0.195-0.238-0.389-0.357-0.571 0 0.213-0.006 0.439-0.006 0.672v136.174h-95.682v-136.174c0-0.239-0.006-0.465-0.006-0.678-0.113 0.182-0.239 0.377-0.358 0.578l-54.553 90.986-8.601-5.167 54.554-90.986c3.959-6.598 8.162-9.335 12.484-8.13 4.322 1.199 6.518 5.707 6.518 13.397v126.135h75.613v-126.135c0-7.691 2.19-12.198 6.524-13.397 4.316-1.231 8.525 1.544 12.478 8.13l54.547 90.986z"></path>
</svg>
